<?xml version="1.0" standalone="no"?>
<!DOCTYPE svg PUBLIC "-//W3C//DTD SVG 20010904//EN"
 "http://www.w3.org/TR/2001/REC-SVG-20010904/DTD/svg10.dtd">
<svg version="1.0" xmlns="http://www.w3.org/2000/svg"
 width="16.000000pt" height="16.000000pt" viewBox="0 0 16.000000 16.000000"
 preserveAspectRatio="xMidYMid meet">
<metadata>
Created by potrace 1.11, written by Peter Selinger 2001-2013
</metadata>
<g transform="translate(0.000000,16.000000) scale(0.001600,-0.001600)"
fill="#000000" stroke="none">
<path d="M4560 9843 c-26 -21 -33 -24 -41 -12 -6 9 -9 10 -9 2 0 -7 -18 -30
-41 -52 -22 -23 -37 -46 -34 -51 4 -6 1 -17 -5 -25 -7 -8 -10 -26 -8 -40 3
-14 1 -25 -3 -25 -5 0 -9 -7 -9 -15 0 -8 5 -15 10 -15 17 0 11 -29 -8 -39 -30
-16 -52 5 -51 47 1 52 12 85 29 90 13 5 13 3 0 -14 -14 -18 -14 -18 5 -4 11 8
22 15 24 17 2 1 -3 9 -12 17 -13 13 -17 13 -32 -4 -10 -11 -22 -17 -26 -14 -5
3 -9 -2 -9 -10 0 -26 -43 -68 -62 -61 -10 4 -15 12 -11 18 4 6 1 7 -6 2 -9 -5
-9 -11 -3 -17 13 -13 4 -38 -13 -38 -7 0 -15 6 -18 14 -7 18 13 87 23 81 4 -3
7 24 6 60 0 35 -4 61 -7 57 -16 -19 -49 -114 -43 -124 4 -6 3 -8 -2 -5 -6 3
-21 -15 -34 -41 -14 -26 -29 -50 -35 -54 -6 -5 -5 -8 3 -8 6 0 12 -5 12 -11 0
-7 -9 -9 -21 -6 -15 4 -19 2 -15 -9 4 -10 -2 -14 -19 -14 -14 0 -29 -8 -35
-20 -6 -11 -15 -20 -21 -20 -6 0 -26 -12 -45 -26 -29 -23 -35 -24 -40 -10 -3
9 -11 13 -17 9 -15 -9 -1 116 17 152 9 17 16 36 16 43 0 17 47 109 60 117 17
10 11 25 -9 25 -30 0 -110 -192 -128 -308 -6 -38 -32 -56 -65 -43 -51 18 -78
22 -73 8 4 -10 -12 -12 -72 -9 -62 3 -83 8 -101 25 -19 17 -22 18 -16 4 5 -13
1 -17 -19 -17 -14 0 -27 6 -30 13 -3 9 -7 9 -20 -2 -10 -7 -17 -10 -17 -5 0 4
-5 3 -12 -4 -9 -9 -8 -15 5 -24 13 -10 14 -17 6 -28 -9 -13 -10 -12 -5 3 6 20
-19 24 -27 5 -4 -10 -6 -10 -6 -1 -1 7 -7 10 -15 7 -8 -3 -12 -13 -9 -25 5
-16 8 -18 15 -7 6 9 8 5 6 -12 -2 -17 -8 -24 -19 -22 -13 2 -18 -9 -24 -45 -5
-32 -9 -42 -15 -32 -10 15 -11 14 -29 -16 -9 -15 -11 -16 -7 -2 4 13 0 17 -17
16 -12 0 -16 -3 -9 -6 6 -2 12 -10 12 -16 -1 -24 -40 36 -40 62 0 14 -5 33
-10 41 -8 13 -10 13 -10 1 0 -11 -4 -10 -16 5 -16 20 -16 13 3 -33 4 -11 3
-14 -5 -9 -15 9 -15 1 -1 -26 8 -16 8 -19 -1 -13 -9 6 -9 3 -2 -11 16 -30 3
-74 -20 -74 -17 0 -18 -3 -8 -15 16 -19 6 -19 -24 0 -13 9 -30 14 -37 13 -8
-2 -13 3 -11 11 3 12 0 12 -12 2 -11 -9 -13 -19 -5 -37 12 -32 11 -34 -3 -31
-7 1 -12 -4 -11 -10 2 -8 -7 -13 -22 -13 -13 0 -28 -7 -33 -16 -5 -9 -12 -15
-15 -15 -18 2 -67 -12 -67 -19 0 -4 -10 -10 -22 -13 -13 -3 -37 -11 -54 -18
-28 -11 -36 -10 -74 10 -42 22 -64 21 -42 -1 22 -22 14 -48 -13 -48 -14 0 -25
-5 -25 -11 0 -5 -4 -8 -9 -5 -17 11 -35 -26 -32 -66 3 -50 -8 -86 -19 -67 -6
9 -10 6 -15 -13 -5 -20 -16 -28 -49 -37 -37 -9 -44 -15 -55 -49 -7 -21 -15
-58 -17 -83 -2 -24 -6 -64 -8 -89 -2 -24 0 -55 6 -69 12 -32 -8 -81 -33 -81
-10 0 -21 -5 -24 -11 -4 -6 -13 -8 -20 -5 -13 5 -25 -33 -25 -78 0 -31 -68
-120 -112 -148 -50 -31 -53 -44 -18 -76 29 -26 30 -31 33 -117 1 -49 -2 -98
-7 -107 -6 -14 -4 -18 8 -18 15 0 15 -3 3 -27 -7 -16 -12 -35 -10 -45 2 -9 -1
-19 -6 -23 -6 -3 -11 -13 -11 -21 0 -8 4 -12 10 -9 11 7 25 -39 16 -53 -3 -5
0 -32 8 -60 12 -47 11 -54 -11 -103 -13 -28 -22 -58 -19 -65 3 -7 1 -16 -3
-19 -12 -7 -20 -55 -9 -55 5 0 3 -10 -3 -22 -14 -27 -21 -100 -8 -92 12 7 11
-13 -1 -36 -8 -16 -7 -18 4 -14 12 4 14 0 10 -22 -3 -15 -9 -35 -15 -46 -5
-10 -7 -18 -3 -18 3 0 1 -7 -6 -15 -8 -10 -9 -15 -2 -15 6 0 9 -7 6 -15 -4 -8
1 -27 11 -41 10 -16 14 -35 10 -51 -3 -14 -1 -31 6 -39 6 -7 9 -20 6 -29 -4
-8 -2 -17 2 -19 5 -3 7 -25 5 -48 -2 -27 3 -52 13 -67 10 -15 13 -36 10 -57
-3 -19 -2 -34 2 -34 11 0 17 -41 41 -290 7 -63 20 -149 31 -192 10 -42 19 -98
19 -125 0 -28 3 -53 7 -57 4 -4 6 -24 5 -44 -2 -27 0 -33 7 -22 12 17 12 16
31 -75 7 -33 18 -78 25 -100 7 -22 21 -71 30 -110 26 -106 63 -225 84 -270 10
-22 25 -60 33 -85 14 -43 14 -45 -15 -86 l-30 -42 22 -28 c14 -18 20 -36 16
-51 -5 -22 19 -86 43 -111 22 -24 31 -48 37 -103 7 -62 34 -169 47 -184 5 -5
6 10 3 35 -4 29 -2 41 4 35 5 -6 15 -55 23 -109 7 -55 18 -104 23 -110 6 -6
11 -33 12 -60 0 -54 18 -74 44 -50 8 8 19 11 22 7 13 -12 7 -22 -14 -25 -12
-2 -26 -14 -30 -27 -8 -19 -6 -22 6 -17 13 5 15 0 9 -28 -7 -39 3 -99 16 -91
5 3 7 -3 5 -12 -1 -10 3 -24 9 -32 6 -8 11 -26 12 -40 0 -14 7 -42 16 -61 25
-57 45 -110 77 -200 16 -47 30 -80 31 -75 1 11 24 -66 45 -155 7 -30 23 -86
35 -125 12 -38 24 -88 27 -110 l5 -40 -22 25 -22 25 21 -37 c11 -21 17 -38 12
-38 -4 0 -8 -13 -9 -30 0 -17 4 -29 11 -27 6 1 12 -7 14 -18 3 -16 2 -17 -6
-5 -7 9 -11 10 -11 3 0 -6 5 -15 11 -19 6 -4 9 -19 5 -36 -6 -28 17 -88 37
-96 4 -2 7 -24 7 -48 0 -32 3 -43 12 -38 8 5 9 0 6 -14 -4 -12 -3 -22 2 -22 9
0 21 -32 26 -69 2 -13 14 -40 28 -61 13 -21 28 -53 31 -73 8 -40 40 -97 55
-97 6 0 9 -4 5 -9 -3 -5 -1 -12 5 -16 5 -3 10 -17 10 -29 0 -13 7 -29 15 -36
8 -7 15 -20 15 -29 1 -17 23 -51 34 -51 4 0 4 5 1 10 -3 6 0 10 7 10 8 0 15
-12 16 -26 1 -15 6 -32 12 -39 5 -6 7 -14 4 -18 -3 -3 3 -3 15 0 15 4 21 1 21
-11 0 -9 4 -16 9 -16 15 0 71 -54 71 -68 0 -7 4 -11 9 -8 12 8 42 -4 37 -13
-3 -4 7 -8 21 -9 32 -2 45 -11 37 -23 -7 -13 74 -92 86 -84 6 4 10 2 10 -4 0
-18 55 -68 69 -63 8 3 11 0 7 -7 -4 -7 1 -11 13 -12 33 -2 39 -4 47 -12 4 -4
2 -7 -4 -7 -7 0 -12 -4 -12 -10 0 -5 12 -10 26 -10 19 0 25 -4 21 -14 -4 -10
2 -16 16 -18 12 -2 23 -12 26 -23 3 -19 36 -48 56 -51 5 0 15 -2 22 -2 7 -1
10 -9 6 -18 -5 -13 -1 -15 18 -10 13 3 18 3 12 0 -17 -7 -17 -35 0 -28 7 2 20
-9 30 -25 11 -19 23 -28 32 -24 10 3 15 -2 15 -16 0 -14 6 -21 20 -21 11 0 20
-6 20 -14 0 -7 11 -25 25 -40 14 -15 25 -35 25 -45 0 -9 4 -21 9 -27 5 -5 12
-23 16 -41 6 -29 3 -34 -28 -50 -67 -34 -162 -96 -178 -115 -8 -11 -49 -31
-90 -45 -71 -24 -122 -34 -289 -52 -54 -5 -89 -16 -123 -35 -26 -15 -49 -32
-52 -36 -3 -5 -28 -16 -57 -26 -28 -9 -77 -29 -107 -44 -72 -35 -107 -47 -331
-115 -224 -68 -294 -97 -452 -187 -139 -79 -245 -136 -366 -197 -45 -24 -95
-52 -110 -65 -15 -12 -87 -62 -161 -110 -133 -88 -226 -171 -281 -250 -39 -57
-145 -253 -191 -353 l-38 -83 1556 0 c1555 0 1556 0 1538 20 -10 11 -28 20
-40 20 -26 0 -45 18 -45 42 0 11 -6 18 -12 17 -37 -4 -47 1 -42 26 2 14 0 25
-6 25 -5 0 -11 10 -11 23 -1 12 -6 1 -13 -25 -15 -61 -20 -65 -33 -23 -6 19
-8 35 -4 35 4 0 8 12 9 27 3 49 5 63 12 63 3 0 7 12 8 28 3 50 5 62 13 62 4 0
6 9 4 20 -2 11 0 20 5 20 5 0 6 7 3 17 -4 11 -3 14 5 9 16 -10 16 26 0 43 -11
10 -10 11 4 6 13 -5 16 -1 14 19 -2 14 1 23 5 20 5 -3 9 0 9 5 0 6 -6 11 -12
11 -10 0 -10 2 0 9 8 4 13 10 12 12 -1 2 4 18 11 34 l13 30 4 -30 c2 -16 9
-36 15 -44 10 -12 9 -14 -5 -8 -14 5 -18 -1 -23 -31 -3 -20 -11 -55 -16 -77
-11 -42 -23 -97 -33 -155 l-6 -35 14 31 c8 17 23 37 32 45 15 12 16 12 9 0 -5
-10 -4 -12 3 -7 7 4 12 15 12 25 0 29 26 46 45 31 14 -11 16 -9 14 21 -2 45
35 143 55 147 10 2 16 14 16 33 0 18 5 29 14 29 10 0 14 11 13 36 -1 22 5 41
14 48 8 6 18 19 22 29 15 39 49 5 51 -51 1 -20 -2 -43 -7 -50 -6 -8 -5 -12 2
-12 6 0 11 4 11 9 0 5 11 8 23 7 17 -1 23 -6 19 -18 -2 -10 0 -18 5 -18 5 0 9
-9 10 -20 1 -11 -2 -20 -8 -20 -5 0 -9 -6 -9 -14 0 -17 -25 -27 -47 -19 -12 5
-15 2 -10 -9 3 -9 0 -18 -6 -21 -19 -7 -59 12 -52 24 4 6 -1 5 -13 -2 -23 -14
-19 -35 8 -44 12 -4 16 -12 13 -26 -7 -26 -23 -35 -34 -18 -6 10 -12 8 -28
-10 -24 -28 -26 -33 -8 -29 6 2 13 -2 15 -7 1 -6 -6 -11 -17 -13 -22 -4 -33
-36 -17 -52 8 -8 7 -14 -4 -21 -12 -9 -12 -10 3 -5 10 3 23 6 28 6 5 0 8 3 7
7 -2 13 20 61 32 68 5 3 8 11 5 16 -4 5 1 9 10 9 17 0 14 -12 -13 -42 -10 -12
-11 -18 -4 -18 7 0 12 -7 12 -16 0 -11 6 -15 20 -11 11 3 23 0 26 -5 4 -7 10
-5 16 5 14 25 70 50 79 35 5 -7 16 -13 26 -14 54 -3 63 -5 63 -18 0 -8 5 -18
12 -22 8 -5 9 -2 5 9 -3 10 -2 17 3 17 6 0 10 7 10 15 0 8 9 15 19 15 17 0 18
4 11 32 -5 18 -11 59 -15 92 -3 32 -10 66 -14 75 -23 46 -29 82 -17 94 17 15
8 50 -10 43 -15 -6 -20 29 -5 38 4 3 6 16 4 30 -3 13 0 27 6 30 5 4 8 13 5 20
-6 17 22 41 31 26 3 -5 0 -10 -7 -10 -19 -1 34 -29 55 -30 9 0 17 -4 17 -10 0
-5 11 -10 24 -10 14 0 28 -5 32 -12 5 -8 1 -9 -12 -5 -12 5 -8 -2 11 -18 30
-25 26 -30 -19 -25 -11 1 -15 -3 -12 -9 4 -6 16 -11 26 -11 10 0 25 -6 32 -12
7 -7 29 -21 48 -31 19 -10 27 -16 18 -13 -9 3 -19 -2 -22 -10 -3 -8 -12 -14
-20 -14 -21 0 -28 -15 -8 -17 65 -5 115 -12 119 -17 4 -3 -2 -6 -13 -6 -16 -1
-15 -3 6 -16 l25 -15 -32 5 c-18 3 -35 1 -38 -4 -4 -6 7 -10 24 -10 16 0 33
-5 36 -10 3 -6 -1 -10 -9 -10 -9 0 -16 -4 -16 -10 0 -5 21 -11 48 -12 95 -3
107 -4 111 -14 2 -5 12 -15 23 -22 16 -12 24 -12 51 1 32 16 53 13 27 -3 -12
-8 -9 -10 10 -10 15 0 31 5 37 11 6 6 25 13 43 15 29 5 31 3 25 -15 -6 -19 9
-31 17 -13 7 16 67 42 73 32 4 -6 3 -10 -2 -9 -13 3 -43 -12 -43 -22 0 -5 9
-9 21 -9 11 0 17 -4 14 -10 -3 -5 -1 -10 5 -10 6 0 8 -5 4 -12 -4 -6 -7 -39
-7 -72 1 -65 -24 -143 -55 -175 -23 -25 -52 -39 -146 -72 l-81 -27 2303 -1
2302 -1 -2 767 -3 766 -65 27 c-36 14 -149 68 -252 120 l-188 93 -107 7 c-96
6 -127 13 -273 64 -172 59 -305 121 -403 188 -32 21 -78 42 -102 47 -24 5 -56
17 -71 27 -65 46 -83 55 -143 74 -77 24 -164 26 -239 4 -39 -12 -74 -15 -116
-10 -54 6 -58 5 -40 -9 26 -20 14 -19 -38 4 -142 63 -401 260 -412 313 -3 16
-30 52 -59 80 -57 57 -92 110 -182 283 -115 222 -130 285 -104 445 17 105 24
279 16 375 -3 29 -1 53 6 57 7 4 4 18 -7 43 -13 26 -15 44 -9 63 10 31 6 62
-8 62 -6 0 -5 8 1 20 8 14 8 20 0 20 -7 0 -5 8 4 21 13 19 13 24 -1 45 -14 22
-13 27 6 67 25 52 26 57 5 57 -8 0 -12 5 -9 11 4 6 14 8 22 5 8 -3 11 -1 8 4
-3 6 -12 10 -20 10 -15 0 -25 21 -21 46 2 11 -2 22 -7 26 -7 4 -6 12 2 22 11
12 11 16 1 16 -10 0 -10 3 -1 14 10 11 10 20 1 36 -6 12 -9 28 -6 36 3 8 8 42
12 76 9 81 17 110 35 119 7 4 50 15 94 24 92 20 172 43 197 56 10 5 24 9 33 9
12 0 89 35 105 47 2 2 -2 9 -10 14 -12 9 -12 10 3 5 43 -14 100 48 132 145 9
30 21 64 26 77 5 13 9 105 9 205 0 100 4 207 9 237 5 30 7 57 5 59 -2 2 -4 -1
-4 -7 0 -7 -7 -12 -15 -12 -13 0 -14 16 -9 108 3 59 8 114 11 122 4 8 5 23 4
34 -2 11 2 16 8 12 30 -19 -8 133 -58 233 -45 88 -93 135 -155 152 -44 12
-108 5 -148 -15 -23 -12 -27 -12 -32 1 -3 8 -4 19 -1 23 3 5 6 45 6 89 0 45 4
81 8 81 4 0 8 33 8 73 1 39 3 79 4 87 1 8 -2 28 -6 44 -5 20 -4 27 3 22 7 -4
8 3 2 21 -21 69 -33 109 -38 122 -4 10 -1 12 8 6 10 -6 12 -4 5 11 -11 27 -15
134 -5 134 5 0 2 12 -6 28 -18 35 -18 53 0 46 12 -4 14 5 12 45 -1 27 1 48 5
45 4 -2 9 5 12 15 3 12 -1 22 -9 25 -8 3 -14 10 -14 17 0 6 7 8 16 5 13 -5 15
0 11 29 -3 20 -11 42 -18 51 -10 13 -10 17 2 24 11 7 11 12 1 22 -13 13 -16
29 -4 27 29 -5 34 2 17 27 -9 14 -14 28 -11 31 3 4 2 11 -3 17 -16 21 -20 56
-6 56 12 0 12 6 0 39 -7 22 -16 55 -19 75 -5 29 -3 36 11 36 13 0 14 3 6 11
-6 6 -9 18 -6 25 3 8 -1 22 -8 31 -10 12 -11 17 -2 20 8 3 8 11 -3 31 -7 14
-10 29 -6 32 11 8 11 64 0 77 -5 7 -7 17 -3 22 4 7 -1 8 -12 4 -16 -6 -17 -5
-3 12 11 14 12 19 3 22 -14 5 -18 39 -5 46 4 2 2 3 -3 1 -6 -1 -20 5 -30 13
-17 12 -18 15 -5 23 8 5 21 10 28 10 23 0 -7 40 -31 41 -20 1 -20 2 -3 6 18 5
18 6 -5 19 l-24 14 30 -5 c27 -5 28 -4 7 5 -13 5 -21 14 -17 19 3 5 -3 16 -14
23 -14 10 -18 23 -15 53 2 36 -24 93 -48 103 -4 2 -8 10 -8 18 0 9 3 13 8 11
4 -3 7 8 7 24 0 23 -6 31 -22 36 -13 3 -23 9 -23 14 0 4 -11 19 -25 33 -23 23
-24 26 -7 35 15 9 14 10 -6 11 -24 0 -59 27 -49 37 9 8 -21 63 -34 63 -6 0 -8
4 -5 9 3 5 -5 17 -19 27 -13 10 -22 21 -20 25 3 4 -5 10 -18 14 -20 6 -19 7
13 19 19 7 38 11 43 9 4 -2 7 1 7 8 0 8 -13 10 -42 6 -23 -3 -36 -2 -29 3 8 4
11 12 8 17 -4 6 4 8 19 5 l24 -4 -17 30 c-10 17 -35 39 -55 48 -21 9 -38 23
-38 30 0 7 -5 16 -12 20 -7 4 -8 3 -4 -4 4 -7 2 -12 -3 -12 -6 0 -11 6 -11 13
0 9 -10 12 -32 10 -30 -3 -31 -2 -11 8 27 14 62 6 92 -22 17 -16 25 -19 31 -9
4 7 13 9 20 5 9 -6 9 -9 -1 -16 -10 -6 -8 -9 9 -9 54 0 5 36 -103 75 -27 11
-63 29 -78 42 -16 13 -33 21 -38 18 -5 -4 -6 1 -3 10 7 17 -21 44 -45 45 -11
0 -9 -4 5 -15 10 -8 14 -15 8 -15 -7 0 -22 9 -35 21 -13 11 -19 18 -14 16 6
-3 16 1 23 9 10 11 8 13 -17 8 -17 -4 -31 -1 -36 6 -4 7 -1 11 6 9 8 -1 21 -1
29 0 13 1 13 2 0 12 -12 9 -11 10 8 6 12 -3 20 -1 16 4 -3 5 -43 7 -89 5 -54
-2 -90 0 -100 8 -13 9 -9 11 24 11 22 0 43 -3 46 -7 4 -4 19 -2 33 3 14 5 31
8 39 5 7 -3 13 -1 13 4 0 6 -9 10 -21 10 -11 0 -18 4 -15 8 3 5 -8 6 -25 4
-28 -4 -59 11 -59 29 0 5 9 9 21 9 13 0 18 -4 13 -12 -4 -7 3 -4 17 7 13 11
26 22 29 24 3 2 -8 1 -25 -3 -29 -7 -29 -7 -10 14 10 11 25 18 32 16 23 -9 14
10 -9 21 -28 12 -64 10 -102 -6 -16 -6 -31 -9 -34 -7 -3 3 7 10 22 16 15 5 24
15 21 20 -4 7 2 9 17 7 12 -2 17 -2 11 0 -7 3 -13 8 -13 13 0 4 -10 6 -21 3
-21 -6 -21 -5 -4 21 9 14 20 26 24 26 12 1 54 41 48 46 -9 9 -67 -26 -67 -41
0 -8 -9 -19 -20 -25 -28 -15 -25 2 8 38 24 26 47 37 101 48 7 1 17 6 22 11 9
9 -106 8 -149 -1 -15 -3 -33 -2 -41 3 -8 6 -26 4 -48 -5 -28 -12 -34 -12 -39
-1 -4 10 -14 5 -38 -19 -41 -41 -66 -46 -41 -8 9 15 12 23 6 19 -7 -3 -23 -24
-36 -46 -16 -24 -30 -36 -39 -33 -8 3 -12 12 -9 20 3 8 1 14 -5 14 -17 0 -21
42 -6 72 8 16 10 28 4 28 -5 0 -10 -8 -10 -17 -1 -26 -37 23 -45 60 -4 15 -11
25 -16 21 -5 -3 -5 -13 1 -25 11 -20 6 -39 -11 -39 -5 0 -9 8 -9 18 0 9 -4 23
-9 30 -7 11 -11 11 -23 -1 -7 -8 -24 -18 -36 -21 -12 -4 -22 -12 -22 -18 0 -6
-9 -8 -20 -5 -10 3 -19 2 -18 -2 0 -3 0 -12 -1 -19 -2 -21 -21 -3 -21 20 0 21
-15 37 -77 85 -27 20 -33 33 -33 62 0 20 -4 31 -8 26 -11 -16 -28 -12 -54 10
-13 11 -41 29 -62 40 -21 11 -43 27 -49 36 -6 9 -17 15 -24 12 -11 -4 -11 -10
2 -30 26 -39 6 -42 -26 -3 -16 19 -29 37 -29 41 0 11 -57 28 -66 21 -4 -4 -4
-2 -1 5 10 17 -44 58 -55 41 -5 -9 -8 -6 -8 9 0 12 -5 25 -11 29 -9 5 -10 -1
-5 -20 9 -35 -1 -33 -52 13 -24 21 -55 44 -70 52 -15 7 -38 23 -52 35 -33 30
-73 44 -91 34 -9 -6 -22 -4 -36 5 -21 14 -99 32 -117 27 -4 -2 -22 2 -40 7
-17 6 -51 13 -76 15 -25 2 -53 7 -62 11 -11 5 -18 3 -18 -5 0 -8 -9 -11 -25
-8 -13 3 -22 1 -19 -3 9 -16 -6 -9 -28 11 -12 11 -27 20 -32 20 -6 0 -3 -7 6
-14 20 -15 14 -26 -13 -26 -12 0 -16 -5 -13 -15 8 -20 2 -19 -26 5 -12 11 -27
17 -31 14 -5 -3 -9 2 -9 11 0 9 -4 13 -10 10 -5 -3 -10 -1 -10 6 0 7 -3 9 -6
6 -4 -4 1 -18 10 -32 9 -13 16 -27 15 -31 0 -3 8 -12 18 -20 22 -17 9 -18 -20
-2 -25 14 -57 18 -57 7 0 -3 9 -9 21 -12 12 -3 18 -10 14 -16 -3 -6 -2 -11 3
-11 5 0 12 -9 15 -19 4 -17 0 -20 -33 -19 -54 1 -146 -22 -129 -33 7 -4 18 -5
24 -2 5 4 7 3 3 -2 -4 -4 -3 -14 2 -20 8 -9 4 -14 -12 -18 -13 -4 -26 -5 -29
-4 -3 1 -13 -4 -21 -11 -13 -10 -16 -7 -21 22 -6 38 1 76 14 76 5 0 6 6 3 13
-3 8 1 27 7 43 7 16 13 35 15 42 1 8 10 22 20 33 9 10 13 19 9 19 -4 0 -1 8 9
19 18 20 50 20 87 1 l24 -13 -20 22 c-36 41 -51 43 -85 14z m-45 -69 c-9 -14
-23 -42 -31 -62 l-14 -37 4 41 c4 39 30 84 49 84 5 0 2 -12 -8 -26z m382 -20
c-3 -3 -12 -4 -19 -1 -8 3 -5 6 6 6 11 1 17 -2 13 -5z m-157 -89 c0 4 5 3 12
-1 8 -5 6 -10 -8 -14 -19 -8 -44 5 -44 22 0 5 9 4 20 -2 11 -6 20 -8 20 -5z
m-533 -37 c-3 -8 -6 -5 -6 6 -1 11 2 17 5 13 3 -3 4 -12 1 -19z m133 -18 c0
-19 -5 -30 -14 -30 -21 0 -25 11 -15 38 12 32 29 27 29 -8z m-734 -181 c13
-12 22 -24 20 -26 -6 -6 -60 18 -68 30 -6 9 -8 9 -8 0 0 -6 5 -15 10 -18 6 -4
8 -10 6 -14 -3 -4 9 -8 27 -9 31 -3 57 -17 57 -33 0 -14 -35 -11 -66 6 -19 9
-32 11 -40 4 -16 -13 -25 22 -12 45 7 13 5 21 -9 32 -16 14 -15 15 21 10 21
-3 49 -15 62 -27z m-83 5 c3 -4 2 -16 -4 -26 -13 -24 -33 -10 -23 15 6 18 16
21 27 11z m133 -2 c6 -4 11 -15 11 -24 0 -13 -4 -15 -17 -8 -22 12 -34 40 -17
40 7 0 17 -4 23 -8z m-231 -119 c-5 -36 -12 -50 -19 -42 -7 8 7 79 16 79 5 0
7 -16 3 -37z m165 27 c0 -5 -2 -10 -4 -10 -3 0 -8 5 -11 10 -3 6 -1 10 4 10 6
0 11 -4 11 -10z m2390 -93 c0 -6 -9 -2 -20 8 -11 10 -20 23 -20 28 0 6 9 2 20
-8 11 -10 20 -23 20 -28z m-14 -21 c15 -16 18 -26 6 -26 -4 0 -13 9 -20 20
-14 23 -7 26 14 6z m167 -7 c3 -12 10 -18 16 -14 11 6 36 -43 27 -53 -3 -2 -8
8 -12 24 -6 25 -8 26 -15 9 -6 -16 -8 -16 -8 -4 -1 9 -8 19 -16 23 -8 3 -15
12 -15 21 0 22 17 18 23 -6z m-40 -36 c12 -44 15 -91 7 -133 -7 -43 -8 -44 -9
-10 -1 19 -8 49 -16 65 l-13 30 3 -35 c2 -19 6 -60 9 -90 6 -54 6 -54 -8 -25
-9 17 -15 47 -16 68 0 20 -3 37 -7 37 -5 0 -7 -24 -6 -52 2 -52 2 -52 -7 -13
-4 22 -11 51 -16 64 -6 21 -4 23 11 18 13 -6 16 -3 11 8 -3 9 -2 23 3 33 5 9
12 25 15 35 3 9 12 17 20 17 8 0 17 -8 19 -17z m34 -35 c-3 -8 -6 -5 -6 6 -1
11 2 17 5 13 3 -3 4 -12 1 -19z m433 6 c0 -14 -30 -33 -44 -28 -21 8 -80 -13
-101 -36 -22 -25 -36 -26 -28 -2 11 30 35 52 60 52 12 0 23 5 23 10 0 6 20 10
45 10 25 0 45 -3 45 -6z m-403 -72 c-2 -15 -6 -34 -10 -42 -3 -8 -8 -22 -11
-30 -4 -8 -3 3 0 25 3 22 6 50 6 62 0 13 4 20 10 17 5 -3 7 -18 5 -32z m68 29
c3 -5 1 -12 -5 -16 -5 -3 -10 1 -10 9 0 18 6 21 15 7z m-98 -23 c-3 -8 -6 -5
-6 6 -1 11 2 17 5 13 3 -3 4 -12 1 -19z m401 0 c-8 -12 -29 -29 -46 -38 -32
-15 -42 -30 -21 -30 7 0 0 -9 -15 -21 -14 -11 -24 -24 -22 -28 3 -4 -7 -7 -22
-8 -15 -1 -21 1 -14 4 6 2 12 10 12 16 0 22 111 127 133 127 5 0 3 -10 -5 -22z
m-148 3 c0 -12 -20 -25 -27 -18 -7 7 6 27 18 27 5 0 9 -4 9 -9z m-80 -61 c0
-5 -5 -10 -11 -10 -5 0 -7 5 -4 10 3 6 8 10 11 10 2 0 4 -4 4 -10z m96 -22
c-11 -15 -25 -27 -30 -27 -5 -1 -2 7 7 17 19 21 22 37 5 26 -6 -4 -8 -3 -5 2
3 5 14 10 25 10 19 0 19 -1 -2 -28z m114 28 c0 -2 -8 -10 -17 -17 -16 -13 -17
-12 -4 4 13 16 21 21 21 13z m50 -5 c0 -5 -7 -11 -14 -14 -10 -4 -13 -1 -9 9
6 15 23 19 23 5z m-250 -76 c0 -5 -5 -3 -10 5 -5 8 -10 20 -10 25 0 6 5 3 10
-5 5 -8 10 -19 10 -25z m217 29 c-3 -3 -12 -4 -19 -1 -8 3 -5 6 6 6 11 1 17
-2 13 -5z m73 -55 c0 -5 -7 -9 -15 -9 -25 0 -29 -1 -42 -12 -17 -14 -16 -3 0
14 16 16 57 21 57 7z m-120 -39 c-8 -6 -22 -10 -30 -9 -9 0 -5 6 10 14 27 14
44 10 20 -5z m-80 -100 c-8 -5 -19 -10 -25 -10 -5 0 -3 5 5 10 8 5 20 10 25
10 6 0 3 -5 -5 -10z m700 -480 c0 -5 -4 -10 -10 -10 -5 0 -10 5 -10 10 0 6 5
10 10 10 6 0 10 -4 10 -10z m-2243 -316 c-3 -3 -12 -4 -19 -1 -8 3 -5 6 6 6
11 1 17 -2 13 -5z m-163 -44 c9 0 22 -13 31 -30 19 -37 19 -46 0 -30 -10 9
-15 9 -15 1 0 -6 -4 -11 -10 -11 -5 0 -10 5 -10 11 0 7 -13 25 -30 41 -37 35
-40 57 -5 34 13 -9 31 -16 39 -16z m86 -26 c0 -16 -9 -18 -28 -6 -7 5 -10 16
-6 26 5 13 9 14 20 5 8 -6 14 -18 14 -25z m-141 2 c16 -12 85 -116 79 -120 -1
-1 -12 -8 -22 -16 -11 -8 -17 -10 -13 -3 5 8 0 9 -15 5 -19 -4 -21 -3 -11 9 9
12 6 14 -19 14 l-30 1 33 -27 c20 -16 28 -28 21 -33 -19 -12 28 -49 66 -52 38
-4 52 -17 52 -49 0 -11 4 -24 8 -30 9 -13 35 -19 28 -6 -3 5 0 14 8 20 10 8
16 8 25 -3 9 -11 9 -15 -1 -19 -7 -3 -4 -6 8 -6 11 -1 24 -4 27 -8 7 -7 50
-15 80 -14 9 0 17 -4 17 -10 0 -5 9 -9 21 -9 13 0 18 -4 13 -12 -6 -10 -5 -10
8 -1 8 7 18 10 21 6 12 -11 7 -23 -9 -23 -8 0 -12 -5 -9 -11 4 -6 14 -8 22 -5
8 3 20 0 27 -6 11 -10 8 -15 -12 -25 -13 -7 -33 -13 -43 -13 -27 0 -19 -23 14
-37 26 -11 40 -53 17 -53 -5 0 -7 7 -4 15 5 11 -1 15 -18 15 -13 0 -29 5 -36
12 -10 10 -16 9 -28 -4 -14 -14 -13 -16 11 -22 14 -4 30 -4 36 -1 5 4 12 -1
15 -9 3 -9 18 -16 33 -16 14 0 33 -5 41 -10 11 -7 6 -10 -20 -10 -34 -1 -34
-2 -10 -11 23 -10 24 -11 8 -23 -10 -7 -15 -16 -11 -19 3 -4 -4 -7 -16 -7 -18
0 -20 -3 -12 -19 6 -10 7 -21 4 -25 -3 -3 6 -6 21 -6 15 0 25 -4 22 -9 -3 -5
1 -14 9 -21 14 -12 20 -7 16 14 -1 5 5 6 13 3 11 -4 13 -1 9 10 -5 13 1 11 28
-7 19 -13 35 -24 36 -25 1 0 0 -11 -4 -24 -4 -15 -8 -19 -13 -11 -5 9 -13 9
-27 1 -11 -6 -30 -8 -42 -6 -12 2 -19 0 -16 -6 4 -5 0 -9 -7 -10 -7 0 -2 -4
10 -10 13 -5 28 -7 33 -3 5 3 9 0 9 -5 0 -6 -4 -11 -10 -11 -5 0 -10 -7 -10
-15 0 -8 -8 -15 -17 -16 -10 0 2 -6 26 -14 24 -7 51 -11 60 -8 9 4 13 3 9 -2
-13 -14 13 -37 27 -25 15 12 45 -12 45 -36 0 -8 6 -14 14 -14 9 0 13 -9 11
-25 -1 -14 2 -28 8 -32 6 -4 7 -1 2 7 -5 9 -4 11 3 6 14 -8 16 -36 4 -36 -4 0
-14 6 -20 12 -10 10 -17 10 -35 -1 -18 -11 -20 -11 -9 0 19 21 14 29 -19 29
-27 0 -30 -2 -19 -15 11 -14 7 -19 -12 -16 -5 0 -8 -4 -8 -9 0 -10 27 -14 63
-11 10 2 17 -5 17 -14 0 -10 -5 -14 -12 -9 -10 5 -10 4 -1 -6 9 -10 15 -10 28
4 20 20 29 20 46 0 10 -13 10 -17 -1 -24 -9 -5 -20 -4 -29 3 -11 9 -15 9 -18
0 -3 -9 -12 -9 -30 -2 -20 7 -28 6 -39 -8 -7 -10 -11 -25 -7 -33 3 -8 6 -32 6
-52 0 -33 3 -38 24 -38 l24 0 -21 22 c-26 28 -18 36 11 9 12 -11 26 -18 30
-15 4 2 11 -1 15 -7 4 -7 3 -9 -3 -6 -18 11 -23 -35 -8 -65 7 -16 9 -26 4 -23
-5 4 -9 2 -9 -3 0 -6 7 -13 16 -16 8 -3 12 -10 9 -16 -10 -16 -21 -12 -35 15
-7 14 -19 25 -26 25 -7 0 -14 4 -16 9 -1 4 -14 12 -27 16 -16 5 -21 4 -17 -4
4 -6 13 -11 19 -11 7 0 20 -9 30 -20 16 -19 16 -20 -6 -20 l-22 -1 24 -19 c13
-11 29 -20 36 -20 7 0 24 -13 37 -28 30 -36 50 -49 42 -27 -4 8 -16 21 -27 27
-19 10 -19 12 -4 23 11 8 15 20 11 31 -4 13 3 10 22 -11 19 -21 25 -24 19 -10
-4 11 -8 30 -8 43 1 14 -5 22 -16 23 -13 0 -14 1 -1 7 20 9 22 42 3 42 -12 0
-13 3 -4 14 14 16 51 17 52 1 4 -71 14 -96 35 -88 14 5 14 3 3 -15 -10 -16
-16 -18 -26 -10 -13 10 -17 -1 -16 -40 1 -7 -5 -11 -13 -8 -21 8 -17 -3 8 -23
l21 -18 -34 -13 c-19 -7 -38 -12 -44 -11 -5 1 2 -8 17 -21 15 -13 37 -34 48
-48 l21 -24 -7 41 c-4 27 -2 43 6 48 9 6 10 0 5 -23 -5 -24 -1 -35 20 -56 14
-14 30 -26 34 -26 5 0 11 -9 14 -20 3 -11 1 -20 -4 -20 -5 0 -9 4 -9 8 0 5
-10 8 -21 8 -12 -1 -24 5 -27 13 -3 10 0 12 13 7 16 -6 16 -4 4 10 -7 9 -15
12 -17 6 -2 -6 -10 -8 -18 -5 -18 7 -18 -11 1 -27 21 -18 9 -30 -31 -30 -28 0
-36 -5 -44 -26 -7 -17 -16 -24 -25 -21 -10 4 -12 1 -8 -10 5 -14 -1 -15 -43
-11 -27 3 -60 2 -74 -2 -17 -6 -20 -8 -7 -9 10 -1 16 -5 13 -10 -3 -4 7 -6 22
-4 l27 4 -22 -17 c-13 -9 -23 -23 -23 -30 0 -8 -4 -14 -9 -14 -21 0 -41 13
-41 27 0 21 -43 12 -46 -10 -1 -11 -6 -22 -10 -25 -4 -4 -4 1 -1 10 4 11 -3
22 -20 33 -24 16 -25 16 -20 1 5 -12 0 -16 -22 -16 -16 0 -38 -3 -48 -7 -15
-6 -13 -9 12 -14 l30 -7 -30 -2 c-27 -1 -28 -2 -10 -11 l20 -9 -20 4 c-11 2
-29 7 -40 11 -14 5 -16 4 -7 -3 9 -6 -5 -12 -50 -21 -124 -22 -134 -27 -153
-69 l-16 -37 5 40 4 40 -22 -48 -22 -48 -11 28 c-11 28 -11 28 -13 -12 -1 -35
-3 -37 -10 -17 -5 12 -12 22 -16 22 -3 0 -4 -7 0 -15 3 -9 0 -15 -9 -15 -8 0
-15 -7 -15 -15 0 -18 -16 -20 -23 -2 -4 7 -6 6 -6 -5 -1 -9 5 -19 12 -21 7 -3
5 -6 -5 -6 -21 -1 -21 -3 -7 -35 10 -22 9 -29 -12 -50 -15 -16 -35 -26 -52
-26 -31 0 -31 1 -12 -101 5 -25 -40 -63 -65 -56 -11 3 -34 0 -50 -6 -36 -14
-48 -37 -17 -31 12 2 16 1 8 -2 -11 -5 -11 -8 0 -14 10 -7 10 -14 1 -34 -11
-24 -10 -26 13 -26 14 0 25 -4 25 -10 0 -5 -7 -10 -16 -10 -8 0 -13 -4 -9 -10
3 -5 11 -7 19 -4 8 3 16 -10 22 -38 9 -38 8 -44 -7 -44 -10 0 -15 6 -12 16 3
10 0 9 -7 -3 -6 -10 -9 -25 -6 -32 3 -8 -3 -19 -12 -24 -9 -6 -13 -11 -8 -11
5 0 4 -6 -2 -13 -13 -15 -11 -33 6 -64 7 -12 12 -33 12 -47 0 -14 3 -26 8 -26
7 0 6 -89 -2 -140 -2 -14 1 -33 6 -44 13 -24 18 -67 7 -61 -4 3 -10 1 -14 -5
-3 -5 0 -10 9 -10 15 0 39 -56 41 -97 2 -23 -5 -27 -37 -24 -10 1 -18 -4 -18
-13 0 -19 17 -30 25 -16 4 6 11 5 21 -4 16 -17 19 -40 4 -31 -18 11 -21 -20
-5 -58 11 -26 12 -43 5 -62 -5 -14 -6 -24 -1 -21 5 3 11 -6 14 -19 2 -14 0
-28 -5 -31 -6 -4 -5 -10 3 -15 10 -6 5 -9 -14 -9 -17 0 -26 -4 -22 -10 4 -6
10 -8 15 -5 5 3 11 1 15 -5 3 -5 3 -10 -2 -10 -10 0 -11 -96 0 -106 4 -4 7
-18 7 -30 0 -13 8 -28 18 -33 9 -6 13 -11 9 -11 -4 0 1 -10 12 -21 36 -39 50
-80 42 -126 -5 -27 -4 -46 3 -53 7 -7 -1 -21 -27 -46 -20 -20 -37 -41 -37 -48
0 -6 -9 -17 -21 -24 -25 -16 -72 -8 -109 18 -14 10 -38 16 -54 14 -19 -2 -35
4 -50 19 -36 37 -70 63 -61 47 8 -13 7 -13 -11 0 -29 23 -34 34 -19 43 8 4 12
14 9 21 -5 13 30 33 49 28 4 -1 7 10 7 26 0 15 6 39 14 54 9 16 13 49 11 87
-2 34 1 61 6 61 14 0 11 42 -6 73 -13 26 -13 31 0 50 8 12 15 28 15 37 0 13
-2 13 -10 0 -8 -12 -10 -12 -16 3 -4 10 -2 23 5 30 14 14 15 50 1 42 -7 -4 -8
3 -4 22 4 15 8 30 10 32 5 6 -24 31 -35 31 -14 0 -14 22 -1 38 6 6 7 10 4 7
-4 -3 -14 0 -21 7 -11 9 -16 9 -23 -2 -5 -8 -7 -17 -4 -21 2 -4 -1 -11 -7 -15
-7 -4 -9 -3 -5 4 3 5 2 12 -4 14 -6 2 -4 15 5 32 8 15 15 34 15 41 0 6 9 20
20 30 11 10 17 21 15 26 -3 4 -1 10 5 14 16 10 12 28 -4 22 -11 -4 -13 -1 -9
11 4 13 2 12 -10 -3 -15 -19 -16 -19 -23 -1 -4 10 -2 21 4 25 14 8 9 55 -7 75
-7 8 -10 20 -7 25 4 5 2 12 -2 15 -5 3 -8 42 -8 87 1 68 -2 82 -17 91 -12 6
-16 16 -12 29 4 10 2 19 -2 19 -5 0 -18 7 -29 15 -18 13 -18 14 6 9 l25 -4
-26 10 c-28 11 -69 77 -62 98 3 7 -1 10 -10 6 -8 -3 -17 2 -21 11 -3 9 -2 13
4 10 6 -3 10 1 10 9 0 9 5 16 10 16 7 0 7 6 0 20 -6 11 -18 20 -28 20 -9 0
-32 13 -50 29 -26 23 -29 30 -16 35 8 3 12 11 9 16 -5 7 -11 8 -19 1 -8 -7
-16 -4 -24 10 -7 11 -16 18 -20 15 -10 -6 -47 22 -39 30 9 9 -11 44 -26 44 -7
0 -34 12 -61 26 -26 14 -50 23 -54 20 -3 -4 -16 3 -28 15 -18 17 -35 21 -81
21 -32 0 -69 -2 -83 -4 -14 -2 -30 0 -37 4 -6 5 -26 5 -45 -1 -27 -9 -28 -10
-6 -7 15 2 25 -1 22 -5 -9 -14 -41 -10 -59 7 -16 17 -42 16 -117 -4 -36 -9
-51 -1 -26 14 7 5 5 11 -7 21 -11 7 -13 13 -7 13 7 0 12 7 12 15 0 8 -4 15 -9
15 -5 0 -17 3 -27 7 -15 5 -16 2 -11 -25 7 -34 -6 -44 -17 -15 -6 15 -8 15
-17 3 -8 -11 -9 -10 -4 8 5 18 2 22 -17 22 -13 0 -30 -6 -36 -12 -10 -10 -15
-10 -21 1 -5 8 -7 19 -5 26 3 6 -2 18 -11 25 -13 11 -14 10 -9 -4 3 -9 1 -16
-5 -16 -6 0 -11 5 -11 10 0 6 -11 10 -24 10 -31 0 -38 28 -13 53 10 10 16 21
13 25 -4 3 -11 1 -17 -5 -12 -12 -42 -6 -35 6 3 4 -7 8 -20 9 -18 1 -23 -2
-18 -11 5 -8 2 -7 -9 2 -15 12 -21 9 -18 -11 0 -5 -5 -8 -12 -8 -7 0 -14 14
-15 31 -1 18 -6 37 -9 43 -11 17 -12 37 -2 30 5 -3 6 -10 3 -16 -4 -7 -2 -8 4
-4 7 4 12 18 12 32 0 18 5 24 21 24 11 0 18 4 15 9 -3 5 -15 7 -26 4 -11 -3
-20 -1 -20 5 0 5 12 13 26 16 19 5 24 11 19 26 -4 12 -2 20 4 20 6 0 11 4 11
8 0 9 -18 12 -62 12 -33 0 -37 15 -7 23 18 5 19 8 7 26 -7 12 -19 19 -26 16
-7 -3 -10 0 -7 5 3 6 1 10 -5 10 -7 0 -8 6 0 19 7 14 7 22 0 26 -6 4 -7 11 -4
17 4 6 7 26 6 45 -2 38 5 43 17 11 5 -14 5 -28 -2 -36 -13 -17 -6 -22 21 -15
12 3 19 9 16 14 -3 5 10 23 28 39 18 17 28 30 23 30 -6 0 -4 4 3 8 10 7 9 15
-4 40 -8 17 -13 36 -10 41 4 5 2 12 -4 16 -6 4 -8 11 -5 16 4 5 -1 9 -10 9
-13 0 -15 -5 -9 -22 5 -13 8 -33 7 -45 0 -14 7 -25 19 -29 16 -5 17 -8 7 -21
-12 -13 -14 -13 -25 1 -12 17 -39 23 -29 7 3 -5 1 -12 -5 -16 -6 -3 -13 1 -16
9 -3 9 -15 16 -26 16 -10 0 -17 4 -13 10 3 5 13 6 22 3 11 -4 14 -3 9 5 -5 8
0 12 12 12 20 0 36 23 25 34 -14 13 -32 5 -27 -11 5 -14 4 -15 -4 -4 -13 19
14 57 46 66 20 5 23 10 17 33 -4 15 -9 51 -12 81 -3 43 -1 53 10 48 21 -8 37
6 39 37 2 21 11 33 36 44 18 9 31 21 28 28 -3 7 2 15 10 18 11 4 14 14 10 33
-7 31 1 46 27 56 9 3 17 12 17 20 0 7 18 17 42 23 27 6 42 15 44 26 3 20 -16
19 -34 -2 -11 -13 -12 -12 -10 5 2 13 11 20 27 21 23 1 76 44 54 44 -7 0 -14
-4 -17 -9 -3 -5 -21 -8 -38 -7 -23 2 -38 -4 -49 -18 -10 -12 -21 -18 -25 -13
-4 4 -2 13 4 19 14 14 16 32 3 23 -5 -3 -12 -1 -16 5 -3 5 3 10 14 10 12 0 21
4 21 10 0 5 9 14 21 21 20 10 21 9 14 -21 -5 -24 -4 -31 6 -28 17 6 18 56 1
63 -8 3 -20 1 -26 -4 -6 -6 -17 -6 -24 -2 -17 10 6 30 30 26 11 -2 25 10 38
32 15 26 17 34 6 30 -8 -3 -22 3 -32 14 -16 18 -16 19 9 19 21 0 24 4 21 23
-2 12 -2 16 2 10 8 -18 24 -16 24 2 0 9 11 20 24 25 33 12 43 47 20 65 -13 9
-24 10 -36 4 -55 -29 -76 7 -33 56 21 25 25 27 31 12 9 -23 27 -21 44 5 8 12
22 27 30 35 8 7 25 22 38 33 12 11 26 20 31 20 6 0 13 4 16 10 9 14 -24 1 -64
-26 -19 -13 -38 -21 -42 -18 -5 3 -18 0 -30 -7 -20 -10 -21 -9 -16 10 4 15 1
21 -12 21 -24 0 -33 -11 -21 -25 12 -15 -7 -65 -24 -65 -33 1 -46 39 -16 47
13 3 20 12 18 23 -5 27 55 72 86 64 15 -3 28 -9 31 -13 2 -4 17 -6 34 -3 42 6
29 32 -15 32 -19 0 -34 5 -34 10 0 21 33 22 92 5 39 -12 62 -15 66 -8 19 28
85 20 105 -13 4 -8 18 -14 30 -14 12 0 38 -10 57 -21 l35 -21 -20 22 -20 23
37 -5 c44 -5 46 12 4 27 -16 5 -31 16 -34 23 -5 17 42 6 86 -20 17 -11 32 -15
32 -9 0 6 -6 11 -14 11 -15 0 -39 25 -42 45 -3 18 39 27 70 15 17 -6 26 -6 26
0 0 6 -7 10 -15 10 -8 0 -15 5 -15 10 0 7 14 8 38 4 20 -4 43 -6 50 -5 38 5
83 0 76 -10 -2 -4 0 -10 5 -13 11 -7 63 19 55 27 -3 3 5 3 18 0 18 -4 20 -3 8
6 -13 10 -13 11 0 11 8 0 46 13 84 29 39 15 85 27 103 26 18 -1 33 2 33 7 0 4
-5 8 -11 8 -5 0 -7 5 -4 10 4 6 24 8 48 4 33 -4 39 -3 27 6 -13 9 -12 11 5 8
12 -2 21 -12 23 -26 3 -16 7 -20 15 -14 7 5 29 15 50 22 22 7 34 16 31 22 -4
7 -2 8 5 4 6 -4 19 -2 28 5 8 8 29 12 45 10 20 -2 28 1 24 8 -4 6 -15 11 -24
12 -34 1 21 18 58 17 19 0 27 -2 18 -5 -10 -2 -18 -13 -18 -24 0 -11 -7 -19
-16 -19 -8 0 -12 -5 -9 -10 4 -7 25 6 51 30 37 34 49 39 71 34 16 -4 34 -12
42 -18z m169 -75 c-8 -48 -78 -49 -91 -1 -4 17 -3 18 16 8 17 -9 23 -8 31 4
12 20 47 11 44 -11z m-2428 -80 c0 -6 -4 -13 -10 -16 -5 -3 -10 1 -10 9 0 9 5
16 10 16 6 0 10 -4 10 -9z m1215 -41 c8 -13 -5 -13 -25 0 -13 8 -13 10 2 10 9
0 20 -4 23 -10z m-383 -52 c-7 -7 -12 -8 -12 -2 0 14 12 26 19 19 2 -3 -1 -11
-7 -17z m1585 -30 c-3 -8 -6 -5 -6 6 -1 11 2 17 5 13 3 -3 4 -12 1 -19z
m-1682 2 c3 -5 1 -10 -5 -10 -6 0 -8 -4 -5 -10 3 -5 -1 -10 -9 -10 -8 0 -18 5
-21 10 -8 13 3 30 20 30 8 0 17 -4 20 -10z m-35 -44 c19 -27 17 -30 -20 -32
-25 -1 -28 1 -19 12 9 11 8 14 -4 14 -19 0 -31 16 -22 30 9 15 47 1 65 -24z
m-117 -51 c-19 -25 -33 -32 -33 -15 0 6 5 10 11 10 5 0 8 4 5 9 -4 5 0 12 6
14 26 11 28 6 11 -18z m121 -12 c3 -10 9 -24 12 -31 4 -8 0 -10 -10 -6 -13 5
-15 2 -9 -12 6 -16 3 -15 -17 3 -18 17 -20 25 -12 36 7 8 9 17 5 20 -3 4 1 7
9 7 9 0 18 -8 22 -17z m29 -65 c-3 -13 -12 -30 -19 -38 -7 -8 -14 -19 -16 -25
-2 -5 -7 -9 -11 -7 -5 1 -6 -2 -2 -8 3 -5 13 -10 21 -10 8 0 14 -4 14 -10 0
-13 -13 -13 -26 0 -12 12 -47 2 -38 -11 3 -5 -10 -1 -28 9 -18 9 -34 17 -36
18 -8 3 11 31 29 42 18 11 23 11 34 -5 7 -10 17 -15 21 -11 4 4 -4 16 -17 27
-19 16 -20 20 -8 21 9 0 22 -7 29 -16 12 -13 16 -11 33 15 23 37 27 39 20 9z
m1972 -68 c3 -5 1 -10 -4 -10 -6 0 -11 5 -11 10 0 6 2 10 4 10 3 0 8 -4 11
-10z m-2082 -50 c7 -26 -5 -33 -35 -21 -12 6 -17 10 -10 10 6 1 12 8 12 16 0
22 27 18 33 -5z m102 -59 c3 -5 1 -12 -5 -16 -5 -3 -10 1 -10 9 0 18 6 21 15
7z m1999 -16 c-4 -8 -15 -15 -26 -15 -17 0 -18 3 -8 15 7 8 19 15 26 15 8 0
11 -6 8 -15z m-2024 -6 c0 -5 -5 -7 -11 -3 -6 3 -15 0 -20 -7 -7 -11 -9 -10
-9 4 0 10 8 17 20 17 11 0 20 -5 20 -11z m2120 -29 c-9 -6 -9 -9 1 -13 10 -4
9 -6 -3 -6 -20 -1 -21 0 -12 23 3 9 11 13 16 10 6 -4 6 -9 -2 -14z m30 -60 c0
-5 -4 -10 -10 -10 -5 0 -10 5 -10 10 0 6 5 10 10 10 6 0 10 -4 10 -10z m-45
-38 c-3 -3 -11 0 -18 7 -9 10 -8 11 6 5 10 -3 15 -9 12 -12z m115 -13 c0 -6
-4 -7 -10 -4 -5 3 -10 11 -10 16 0 6 5 7 10 4 6 -3 10 -11 10 -16z m63 -48
c-15 -9 -12 -40 4 -34 7 3 10 10 6 17 -3 6 -2 7 2 3 5 -4 10 -14 12 -22 2 -8
4 -22 6 -30 2 -8 11 -23 22 -35 16 -18 13 -22 -12 -19 -5 1 -7 5 -5 10 3 12
-5 11 -30 -2 -17 -9 -23 -8 -30 5 -5 9 -14 13 -20 10 -6 -4 -8 -3 -5 4 4 5 16
8 27 5 12 -3 20 0 20 6 0 7 5 9 11 5 7 -4 10 -1 7 7 -3 8 -11 15 -19 15 -8 1
-20 2 -27 3 -8 1 -10 10 -6 29 8 29 23 44 37 35 5 -3 5 -8 0 -12z m-2340 -36
c4 -9 -1 -11 -14 -8 -21 6 -28 -22 -6 -30 7 -4 8 -6 1 -6 -7 -1 -19 10 -28 24
-15 22 -15 25 1 34 20 10 39 5 46 -14z m27 15 c0 -5 -4 -10 -10 -10 -5 0 -10
5 -10 10 0 6 5 10 10 10 6 0 10 -4 10 -10z m2260 -19 c0 -10 -7 -21 -15 -25
-15 -5 -22 24 -8 37 12 13 23 7 23 -12z m-2350 -19 c0 -13 -12 -22 -22 -16
-10 6 -1 24 13 24 5 0 9 -4 9 -8z m-21 -42 c9 0 22 5 28 11 9 9 11 7 7 -9 -8
-28 -42 -35 -54 -12 -6 10 -10 22 -9 27 0 4 3 2 6 -4 2 -7 12 -13 22 -13z
m2431 -41 c0 -5 -6 -7 -12 -3 -10 6 -10 4 0 -7 6 -7 12 -22 12 -32 0 -16 -3
-17 -15 -7 -8 7 -15 23 -15 36 0 15 6 24 15 24 8 0 15 -5 15 -11z m110 7 c0
-3 -4 -8 -10 -11 -5 -3 -10 -1 -10 4 0 6 5 11 10 11 6 0 10 -2 10 -4z m-2510
-17 c0 -5 -4 -8 -9 -4 -5 3 -12 1 -16 -5 -9 -14 -25 -12 -25 3 0 7 11 14 25
15 14 1 25 -3 25 -9z m2612 -81 c-9 -9 -8 -16 4 -29 14 -15 12 -17 -16 -21
-16 -3 -30 -3 -30 0 0 12 36 62 44 62 6 0 5 -5 -2 -12z m-2662 -2 c0 -2 -7 -9
-15 -16 -13 -11 -14 -10 -9 4 5 14 24 23 24 12z m2324 -27 c-8 -14 -24 -10
-24 6 0 9 6 12 15 9 8 -4 12 -10 9 -15z m34 -40 c13 0 13 -2 -3 -8 -21 -9 -38
6 -28 23 4 6 8 5 11 -2 2 -7 11 -12 20 -13z m56 -40 c-3 -5 -11 -9 -17 -9 -7
0 -6 4 3 10 10 6 11 10 3 10 -7 0 -13 5 -13 11 0 8 5 8 15 -1 8 -7 12 -16 9
-21z m95 17 c11 -14 6 -15 -27 -7 -4 1 8 21 12 21 2 0 9 -6 15 -14z m-2559
-44 c0 -4 -5 -13 -12 -20 -9 -9 -8 -12 5 -12 21 0 22 -26 1 -34 -23 -9 -27 -8
-20 9 3 8 1 15 -5 15 -5 0 -14 -10 -19 -22 -5 -13 -9 -19 -9 -14 -2 20 34 86
46 86 7 0 13 -4 13 -8z m2440 -22 c0 -5 -2 -10 -4 -10 -3 0 -8 5 -11 10 -3 6
-1 10 4 10 6 0 11 -4 11 -10z m-2523 -232 c-3 -8 -6 -5 -6 6 -1 11 2 17 5 13
3 -3 4 -12 1 -19z m2693 -20 c0 -6 -7 -5 -15 2 -8 7 -15 17 -15 22 0 6 7 5 15
-2 8 -7 15 -17 15 -22z m-2597 -207 c-3 -11 -11 -22 -19 -25 -11 -4 -12 -2 -4
13 7 14 6 21 -3 24 -6 3 -2 6 10 6 16 1 20 -3 16 -18z m2394 -27 c-3 -3 -12
-4 -19 -1 -8 3 -5 6 6 6 11 1 17 -2 13 -5z m-507 -138 c0 -3 -4 -8 -10 -11 -5
-3 -10 -1 -10 4 0 6 5 11 10 11 6 0 10 -2 10 -4z m871 -80 c22 4 22 4 4 -5
-27 -13 -87 -13 -105 0 -13 9 -12 10 2 5 10 -3 20 -1 23 4 3 6 15 6 29 0 13
-5 34 -7 47 -4z m-201 -6 c-20 -13 -33 -13 -25 0 3 6 14 10 23 10 15 0 15 -2
2 -10z m90 -19 c0 -13 -39 -21 -47 -9 -3 6 -1 8 5 4 6 -3 13 -2 17 4 8 12 25
13 25 1z m-2534 -48 c-10 -10 -19 5 -10 18 6 11 8 11 12 0 2 -7 1 -15 -2 -18z
m-23 -43 c-2 -2 -8 2 -12 9 -5 7 -14 10 -20 7 -16 -10 -13 -24 7 -29 15 -4 15
-5 0 -6 -26 -2 -31 17 -13 46 l17 25 12 -23 c7 -13 11 -26 9 -29z m2337 -44
c0 -2 -30 -13 -68 -25 -53 -16 -71 -26 -85 -51 -10 -16 -25 -30 -34 -30 -13 0
-14 2 -2 17 10 11 10 14 2 9 -7 -4 -13 -3 -13 1 0 5 6 15 13 23 6 8 3 7 -9 -3
-25 -21 -41 -22 -24 -2 17 20 68 45 94 45 12 0 28 5 36 10 14 9 90 14 90 6z
m-83 -53 c-9 -2 -15 -9 -12 -14 4 -5 2 -9 -4 -9 -5 0 -12 4 -15 9 -7 10 11 20
34 19 10 0 9 -2 -3 -5z m-137 -48 c-7 -8 -17 -15 -23 -15 -6 0 -2 7 9 15 25
19 30 19 14 0z m173 0 c-3 -9 -8 -14 -10 -11 -3 3 -2 9 2 15 9 16 15 13 8 -4z
m-153 -75 c0 -5 -5 -10 -11 -10 -5 0 -7 5 -4 10 3 6 8 10 11 10 2 0 4 -4 4
-10z m173 -61 c-17 -17 -37 -1 -22 17 8 10 15 12 23 4 7 -7 7 -13 -1 -21z
m107 16 c0 -8 -4 -15 -10 -15 -5 0 -10 7 -10 15 0 8 5 15 10 15 6 0 10 -7 10
-15z m-222 -71 c17 -58 47 -93 106 -120 l50 -23 -30 -11 c-60 -23 -239 -11
-262 19 -12 15 -15 14 -32 -6 -18 -23 -60 -32 -60 -13 0 6 3 9 8 9 26 -4 41 3
36 16 -4 9 11 31 37 58 24 24 55 58 68 76 13 17 29 31 37 31 8 0 14 5 14 12 0
22 16 -6 28 -48z m-2088 6 c0 -5 -5 -10 -11 -10 -5 0 -7 5 -4 10 3 6 8 10 11
10 2 0 4 -4 4 -10z m375 -34 c-16 -7 -32 -11 -35 -9 -8 7 24 23 45 22 15 0 13
-3 -10 -13z m1415 -21 c0 -9 7 -18 15 -21 13 -5 13 -9 0 -34 -8 -16 -15 -38
-15 -48 0 -12 -9 -22 -21 -25 -15 -4 -20 -11 -15 -22 4 -12 1 -15 -12 -13 -10
2 -16 11 -14 23 4 26 4 47 0 65 -2 9 3 14 11 12 10 -2 12 4 8 20 -4 14 0 29
10 40 20 22 33 23 33 3z m-1433 -21 c-16 -9 -31 -13 -34 -10 -3 3 5 10 18 15
37 15 47 12 16 -5z m2590 -11 c15 -1 29 -7 31 -12 2 -5 10 -7 18 -4 8 3 14 0
14 -6 0 -6 -6 -10 -12 -8 -8 1 -14 -9 -15 -23 -3 -54 -2 -52 -18 -36 -8 8 -13
20 -12 28 2 7 2 10 0 5 -3 -4 -9 -4 -15 -1 -5 3 -3 -7 6 -23 8 -17 13 -41 10
-54 -5 -20 -4 -21 6 -9 9 11 13 12 17 3 2 -7 10 -13 16 -13 17 -1 62 -41 76
-68 12 -22 11 -23 -8 -12 -16 8 -21 8 -21 -2 0 -6 -7 -3 -15 8 -8 10 -15 14
-15 7 0 -19 12 -43 22 -43 11 0 78 -71 78 -84 0 -5 8 -14 17 -21 18 -13 28
-49 10 -38 -6 4 -8 0 -4 -10 7 -20 -8 -23 -17 -4 -8 16 0 -23 8 -44 5 -12 0
-18 -18 -23 -13 -3 -31 -3 -39 0 -8 3 -17 -2 -21 -11 -3 -9 -2 -14 2 -11 25
15 57 -60 37 -87 -13 -17 -31 -24 -21 -8 8 12 -4 42 -14 36 -14 -9 -9 -70 8
-88 14 -16 14 -19 2 -16 -22 4 -71 -22 -67 -35 5 -12 10 -12 42 0 19 7 19 6
-1 -12 -21 -19 -29 -54 -12 -54 4 0 8 -8 8 -18 0 -10 5 -23 12 -30 9 -9 9 -12
-1 -12 -7 0 -9 -5 -6 -10 4 -6 11 -7 17 -4 6 4 9 1 6 -6 -8 -26 -23 -20 -40
17 l-16 38 -10 -35 c-6 -19 -11 -29 -11 -22 -2 27 -18 10 -17 -18 1 -30 10
-38 21 -20 3 6 11 10 17 10 6 0 3 -10 -8 -22 -10 -12 -13 -18 -7 -14 9 5 12 0
11 -17 -1 -16 -7 -23 -15 -20 -14 6 -16 -31 -4 -77 6 -23 43 -40 38 -17 -1 6
7 15 19 21 11 6 19 17 16 25 -3 8 0 11 7 7 14 -9 15 -36 1 -36 -5 0 -10 -7
-10 -16 0 -8 5 -12 10 -9 15 10 12 -14 -7 -45 -10 -17 -27 -30 -42 -32 -17 -2
-25 -10 -26 -25 -1 -14 3 -19 12 -16 15 6 17 -6 4 -26 -8 -12 -12 -12 -24 -2
-10 8 -17 9 -22 1 -3 -5 1 -10 9 -10 20 0 20 -14 1 -34 -11 -10 -12 -17 -4
-22 6 -3 15 0 20 7 6 10 9 11 10 2 3 -28 4 -32 12 -39 4 -4 7 -12 7 -18 0 -7
-3 -6 -8 1 -4 7 -17 14 -27 16 -32 4 -45 16 -38 34 4 10 2 14 -4 10 -15 -9
-22 -56 -10 -64 6 -3 7 -1 3 5 -4 7 -2 12 3 12 15 0 13 -21 -4 -44 -11 -15
-12 -22 -3 -27 14 -9 21 -49 8 -49 -5 0 -14 8 -19 18 -8 13 -9 9 -4 -17 4 -24
3 -32 -5 -27 -7 4 -10 2 -7 -6 3 -8 -3 -23 -13 -33 -26 -29 -34 -55 -17 -55 8
0 15 -5 15 -11 0 -5 -4 -8 -9 -4 -12 7 -25 -31 -15 -46 4 -7 1 -10 -7 -7 -8 3
-14 10 -14 15 0 6 -3 15 -7 19 -20 19 -5 -23 15 -44 21 -22 21 -24 5 -36 -10
-7 -18 -18 -18 -25 0 -6 -5 -11 -11 -11 -6 0 -8 7 -5 16 3 8 2 12 -4 9 -5 -3
-20 0 -32 7 -13 7 -29 11 -36 9 -8 -1 -20 3 -28 10 -8 7 -14 8 -13 3 5 -28 -1
-33 -26 -22 -14 6 -25 16 -25 21 0 5 -14 7 -32 3 -22 -4 -37 -1 -51 11 -15 13
-21 15 -24 5 -3 -6 -9 -9 -15 -6 -6 4 -14 0 -19 -7 -7 -11 -9 -9 -9 7 0 22
-22 48 -33 38 -3 -3 -3 -13 1 -22 4 -11 -2 -9 -18 6 -13 12 -29 21 -36 18 -6
-2 -17 0 -25 5 -12 8 -12 11 1 20 13 9 12 10 -2 5 -10 -3 -18 -1 -18 4 0 5 -6
7 -14 4 -8 -3 -24 0 -36 6 -22 12 -60 5 -60 -10 0 -5 11 -15 25 -22 17 -9 22
-17 15 -27 -7 -12 -14 -8 -35 17 -15 18 -33 32 -41 32 -8 0 -14 6 -14 14 0 8
-7 17 -16 20 -13 5 -15 2 -11 -14 3 -11 1 -20 -5 -20 -6 0 -8 12 -5 26 3 16 0
28 -9 31 -16 6 -19 33 -4 33 6 0 10 10 11 23 0 12 3 16 6 10 6 -15 33 -17 33
-3 0 6 -4 10 -10 10 -21 0 -8 22 20 34 17 7 27 15 23 19 -3 4 -2 7 4 7 27 0
15 79 -12 80 -5 0 -4 4 3 8 20 13 -3 60 -54 111 -25 24 -43 50 -40 56 3 8 -7
15 -24 18 -15 4 -28 12 -27 19 1 32 -4 49 -13 43 -6 -3 -13 1 -16 10 -4 9 -12
14 -19 11 -7 -2 -22 5 -33 17 -20 21 -22 25 -22 47 0 6 -8 11 -17 11 -17 1
-17 2 0 6 16 4 20 13 15 30 -2 5 -6 7 -10 6 -5 -2 -8 2 -8 7 0 6 12 16 28 22
27 11 27 12 4 16 -17 2 -22 8 -18 20 5 13 2 12 -9 -2 -14 -19 -15 -18 -15 16
0 24 -8 44 -27 64 -21 23 -23 30 -11 32 16 3 23 52 7 52 -5 0 -9 -9 -9 -20 0
-11 -5 -20 -11 -20 -7 0 -9 9 -5 23 19 63 22 101 9 102 -16 0 -29 15 -13 15 7
0 0 12 -16 27 -16 15 -32 26 -36 25 -12 -3 -9 13 4 26 9 9 8 12 -4 12 -21 0
-30 27 -17 52 8 15 18 19 40 16 16 -3 30 0 32 6 2 6 11 4 21 -7 10 -9 24 -17
32 -17 9 0 14 -8 13 -17 -3 -23 10 -53 23 -53 6 0 19 10 29 21 17 19 19 20 25
5 5 -13 18 -16 60 -15 54 2 67 19 14 19 -31 0 -47 25 -29 46 6 8 8 14 3 15 -5
0 1 4 14 10 17 6 27 5 38 -5 20 -21 18 -24 -12 -18 -18 3 -25 1 -20 -6 3 -6 0
-13 -6 -16 -7 -3 1 -2 17 1 17 3 42 15 56 25 22 17 43 24 72 27 5 1 5 6 1 12
-4 8 1 9 17 3 13 -4 29 -7 36 -7 7 0 10 -4 7 -9 -3 -4 -15 -8 -26 -8 -44 0 -9
-10 54 -16 54 -5 66 -3 71 10 5 13 3 15 -11 7 -14 -7 -18 -5 -18 10 0 13 5 18
14 14 10 -4 12 0 8 11 -5 14 -4 15 8 5 10 -8 16 -9 21 -1 3 6 11 8 16 4 6 -4
6 -10 -1 -19 -7 -9 -7 -15 2 -23 10 -8 13 -4 14 13 3 38 31 59 79 59 37 1 44
4 48 24 2 13 -2 26 -9 30 -12 7 -11 11 4 27 10 11 21 28 25 38 4 10 11 15 17
12 5 -3 10 -1 10 5 0 7 8 9 20 5 11 -4 20 -2 20 4 0 18 63 40 78 28 11 -8 11
-6 1 16 -7 15 -16 24 -20 21 -15 -9 -10 26 5 42 8 8 22 11 30 8 12 -5 15 -2 9
12 -4 12 -3 15 6 10 7 -5 19 1 30 13 10 12 23 21 30 21 6 0 11 4 11 9 0 13 44
18 52 6 4 -5 20 -11 35 -12z m-581 -48 c-11 -8 -25 -15 -30 -15 -6 0 -2 7 8
15 11 8 25 15 30 15 6 0 2 -7 -8 -15z m650 -33 c-4 -3 -11 0 -16 8 -15 24 -11
33 6 15 9 -9 13 -19 10 -23z m-1131 -40 c13 3 22 1 19 -3 -3 -5 7 -11 21 -15
27 -7 29 -11 15 -34 -8 -12 -13 -13 -29 -3 -16 10 -20 9 -25 -2 -3 -9 0 -15 8
-15 9 0 12 -7 9 -20 -4 -14 0 -20 11 -20 10 0 15 4 11 9 -3 6 3 9 14 8 15 -1
17 -4 7 -19 -14 -23 -19 -23 -65 6 -21 14 -42 22 -47 18 -4 -4 -4 -1 0 6 4 7
1 12 -8 12 -8 0 -22 10 -30 22 -18 25 -22 63 -6 53 6 -3 10 -2 10 4 0 7 10 6
30 -1 17 -5 42 -8 55 -6z m-2140 -11 c-3 -6 -11 -11 -17 -11 -6 0 -6 6 2 15
14 17 26 13 15 -4z m750 8 c10 -15 -1 -23 -20 -15 -9 3 -13 10 -10 16 8 13 22
13 30 -1z m105 1 c0 -5 -4 -10 -10 -10 -5 0 -10 5 -10 10 0 6 5 10 10 10 6 0
10 -4 10 -10z m1477 -11 c-6 -9 -17 -15 -24 -12 -8 3 -11 0 -8 -8 5 -13 -1
-14 -72 -10 -7 1 -13 6 -13 13 0 6 3 8 6 5 4 -3 17 2 29 11 13 10 38 18 58 18
30 0 33 -2 24 -17z m-1187 -41 c0 -4 -7 -5 -15 -2 -8 4 -15 16 -15 27 0 20 0
20 15 1 8 -10 15 -22 15 -26z m-135 -30 c-4 -9 -16 -19 -28 -22 -18 -5 -19 -8
-7 -15 12 -8 11 -11 -5 -16 -11 -4 -28 -11 -37 -16 -31 -16 -31 -10 0 25 17
19 33 49 37 66 7 32 7 32 26 13 11 -11 17 -26 14 -35z m-397 -28 c55 -62 113
-99 154 -101 18 -1 15 -4 -12 -12 -51 -15 -182 -15 -188 1 -2 6 -10 12 -18 12
-25 0 -31 39 -16 101 8 32 17 59 20 59 3 0 30 -27 60 -60z m1652 40 c0 -5 -8
-10 -17 -10 -15 0 -16 2 -3 10 19 12 20 12 20 0z m-1194 -35 c0 -14 -7 -27
-13 -30 -14 -5 -17 13 -7 39 9 25 22 19 20 -9z m114 -7 c0 -16 -3 -19 -11 -11
-6 6 -8 16 -5 22 11 17 16 13 16 -11z m2166 -51 c-6 -4 1 -5 15 -1 15 3 30 1
34 -5 3 -6 11 -9 16 -6 12 8 11 -17 -2 -35 -9 -13 -10 -12 -5 3 5 17 3 19 -36
20 -32 1 -53 32 -36 51 11 12 14 12 19 -3 4 -9 1 -20 -5 -24z m54 22 c0 -4 -7
-6 -15 -3 -8 4 -15 10 -15 15 0 4 7 6 15 3 8 -4 15 -10 15 -15z m-3365 1 c3
-5 1 -10 -4 -10 -6 0 -11 5 -11 10 0 6 2 10 4 10 3 0 8 -4 11 -10z m1088 -30
c3 -13 0 -20 -9 -20 -8 0 -14 -7 -14 -15 0 -8 -7 -15 -15 -15 -8 0 -14 5 -12
12 1 7 -4 12 -12 13 -19 0 -27 25 -9 25 8 0 19 -5 25 -11 8 -8 13 -5 18 10 8
27 21 27 28 1z m1032 10 c3 -6 -1 -7 -9 -4 -18 7 -21 14 -7 14 6 0 13 -4 16
-10z m-2135 -14 c0 -2 -8 -10 -17 -17 -16 -13 -17 -12 -4 4 13 16 21 21 21 13z
m2225 -26 c4 0 2 7 -5 15 -7 8 -8 15 -4 15 5 0 15 -9 22 -20 11 -18 10 -20
-11 -20 -24 0 -47 17 -47 34 0 5 8 2 18 -7 10 -10 22 -17 27 -17z m135 1 c0
-5 -12 -8 -26 -8 -18 0 -22 2 -13 8 18 11 39 11 39 0z m-1465 -11 c3 -5 2 -10
-4 -10 -5 0 -13 5 -16 10 -3 6 -2 10 4 10 5 0 13 -4 16 -10z m35 0 c0 -5 -4
-10 -10 -10 -5 0 -10 5 -10 10 0 6 5 10 10 10 6 0 10 -4 10 -10z m99 -7 c18
-19 7 -27 -18 -14 -17 9 -20 9 -15 -3 3 -8 1 -17 -5 -21 -7 -4 -11 5 -11 23 0
32 24 39 49 15z m1131 7 c0 -5 -7 -10 -15 -10 -8 0 -15 5 -15 10 0 6 7 10 15
10 8 0 15 -4 15 -10z m1208 -15 c-3 -3 -9 2 -12 12 -6 14 -5 15 5 6 7 -7 10
-15 7 -18z m-2498 -5 c0 -4 -18 -10 -40 -12 -46 -4 -50 14 -4 23 31 6 44 3 44
-11z m81 -3 c-10 -9 -11 -8 -5 6 3 10 9 15 12 12 3 -3 0 -11 -7 -18z m1479 13
c0 -5 -2 -10 -4 -10 -3 0 -8 5 -11 10 -3 6 -1 10 4 10 6 0 11 -4 11 -10z
m-2410 -4 c0 -2 -7 -6 -15 -10 -8 -3 -15 -1 -15 4 0 6 7 10 15 10 8 0 15 -2
15 -4z m2230 -16 c13 -8 13 -10 -2 -10 -9 0 -20 5 -23 10 -8 13 5 13 25 0z
m73 -4 c8 3 18 1 21 -4 3 -5 -2 -12 -12 -14 -20 -5 -65 16 -55 25 3 4 12 2 18
-3 7 -6 19 -8 28 -4z m1077 -8 c0 -19 -2 -20 -10 -8 -13 19 -13 30 0 30 6 0
10 -10 10 -22z m-2650 0 c0 6 5 12 11 12 8 0 7 -5 -1 -15 -7 -9 -19 -14 -27
-11 -7 3 -13 1 -13 -4 0 -6 -9 -10 -20 -10 -11 0 -20 5 -20 11 0 6 6 9 14 6 8
-3 20 1 27 9 10 12 14 12 20 2 7 -10 9 -10 9 0z m177 -12 c0 -8 -6 -12 -14 -9
-7 3 -10 9 -7 14 8 14 21 11 21 -5z m-102 -6 c-3 -5 -11 -10 -16 -10 -6 0 -7
5 -4 10 3 6 11 10 16 10 6 0 7 -4 4 -10z m1483 -9 c10 -6 6 -10 -15 -14 -15
-3 -32 -1 -38 4 -7 7 -4 8 8 4 10 -4 17 -2 17 4 0 13 10 14 28 2z m-2295 -71
c3 -11 1 -23 -4 -26 -5 -3 -7 -10 -4 -15 4 -5 2 -9 -3 -9 -5 0 -9 18 -8 39 1
41 10 46 19 11z m-50 -40 c3 -11 1 -20 -4 -20 -5 0 -9 9 -9 20 0 11 2 20 4 20
2 0 6 -9 9 -20z m314 -2 c11 6 25 7 33 2 8 -5 17 -7 21 -4 4 2 9 -3 13 -11 3
-8 0 -15 -6 -15 -6 0 0 -10 13 -23 13 -13 27 -22 32 -20 4 2 7 -8 7 -22 0 -15
12 -39 30 -58 17 -18 28 -25 25 -16 -4 10 -1 20 4 24 6 3 9 11 6 16 -4 5 -2 9
4 9 15 0 21 -14 12 -29 -10 -16 24 -55 39 -46 6 4 10 2 10 -4 0 -6 7 -8 15 -5
14 6 13 8 -1 19 -12 8 -14 14 -6 19 17 10 15 26 -2 20 -10 -4 -12 2 -9 20 l5
25 17 -21 c10 -12 23 -18 30 -14 6 4 9 10 7 14 -2 4 12 8 32 10 20 1 39 6 42
11 3 5 18 13 34 17 21 5 27 4 22 -5 -4 -6 -14 -11 -22 -11 -8 0 -14 -9 -14
-20 0 -11 5 -20 10 -20 6 0 10 4 10 8 0 5 18 18 40 30 43 23 50 20 23 -10 -23
-26 -3 -22 37 7 37 27 51 25 43 -5 -6 -22 7 -26 25 -8 6 6 15 8 19 4 4 -4 1
-12 -7 -17 -13 -8 -11 -12 8 -26 21 -15 22 -17 6 -34 -16 -18 -15 -19 34 -19
46 0 50 2 47 20 -2 11 0 18 4 15 5 -3 11 2 14 9 3 8 16 20 29 27 20 11 22 11
10 -3 -11 -14 -9 -16 16 -14 23 2 28 -2 24 -16 -2 -10 -8 -15 -13 -12 -5 3 -9
1 -9 -5 0 -5 4 -13 10 -16 11 -7 10 -55 -2 -55 -4 0 -6 -9 -5 -20 1 -11 7 -20
14 -20 17 0 17 -27 1 -34 -7 -3 -4 -4 7 -3 11 1 23 7 27 12 5 6 8 5 8 -3 0 -7
-7 -15 -15 -18 -23 -9 -18 -45 10 -78 30 -35 30 -35 3 -45 -13 -5 -24 -17 -24
-30 -3 -39 -4 -42 -17 -39 -7 2 -12 -1 -12 -7 0 -5 5 -10 10 -10 6 0 16 -4 23
-9 11 -6 11 -11 0 -24 -11 -15 -11 -15 3 -5 9 7 19 9 24 5 4 -4 2 3 -6 15 -7
12 -10 25 -6 29 10 10 14 4 21 -31 5 -25 3 -31 -11 -33 -10 -1 -27 -4 -38 -6
-11 -2 -22 -5 -25 -6 -3 0 2 -6 11 -13 19 -15 32 -47 18 -47 -6 0 -8 -4 -5 -8
3 -5 20 -7 38 -6 30 2 31 1 15 -11 -16 -11 -17 -17 -7 -35 9 -16 9 -25 1 -33
-6 -6 -11 -7 -11 -2 0 5 -6 0 -14 -10 -12 -16 -11 -21 5 -39 22 -23 22 -26 8
-46 -7 -11 -12 -12 -15 -3 -3 7 -12 9 -20 6 -19 -7 -18 -23 2 -23 8 0 12 -4 9
-10 -11 -18 7 -10 26 12 11 11 19 17 19 13 0 -5 -6 -16 -14 -24 -18 -21 -29
-71 -16 -71 5 0 10 5 10 11 0 6 5 9 11 7 6 -2 9 -6 7 -8 -5 -8 26 -38 35 -33
4 2 3 13 -3 23 -14 27 -12 34 5 20 8 -7 12 -16 9 -21 -3 -5 0 -9 5 -9 6 0 11
-6 11 -14 0 -8 13 -17 28 -21 24 -5 28 -10 24 -34 -2 -16 1 -32 7 -35 6 -4 11
-16 11 -27 0 -11 -5 -17 -10 -14 -6 3 -17 0 -25 -8 -11 -12 -12 -22 -3 -51 13
-42 -2 -89 -26 -80 -13 5 -33 -29 -28 -48 1 -4 -4 -5 -12 -2 -8 3 -16 14 -19
25 -6 23 -30 25 -47 4 -7 -8 -18 -15 -24 -15 -6 0 3 11 19 24 27 23 28 25 8
23 -12 -1 -20 -4 -17 -9 2 -4 -18 -15 -45 -24 -27 -10 -47 -23 -45 -29 3 -6
-7 -21 -20 -33 -14 -12 -28 -33 -32 -46 -3 -14 -17 -32 -30 -41 -13 -8 -24
-24 -24 -34 0 -11 -15 -28 -35 -40 -19 -11 -40 -33 -45 -48 -6 -16 -15 -36
-20 -45 -13 -24 -13 -31 3 -22 9 6 9 4 -1 -8 -9 -11 -10 -23 -2 -42 13 -36 13
-47 -2 -44 -21 5 -36 30 -30 51 3 12 -2 23 -12 29 -11 6 -15 16 -11 29 5 15 2
19 -15 19 -17 0 -20 -4 -15 -22 4 -17 0 -13 -16 10 l-22 34 -13 -29 c-7 -15
-13 -22 -13 -15 -1 7 -5 11 -10 8 -5 -3 -11 3 -14 14 -3 10 -1 20 4 22 14 5
-1 68 -16 68 -6 0 -12 7 -12 15 0 8 4 15 9 15 4 0 8 5 8 11 0 8 -4 9 -13 0 -8
-6 -17 -8 -21 -4 -4 4 -4 0 0 -10 3 -9 1 -17 -4 -17 -6 0 -12 6 -15 13 -2 6
-2 2 0 -10 2 -13 0 -23 -5 -23 -12 0 -15 97 -2 105 5 3 14 -4 19 -17 10 -23
10 -22 10 5 1 15 -4 27 -9 27 -6 0 -8 11 -4 25 4 15 2 25 -5 25 -6 0 -11 -7
-11 -15 0 -17 -2 -17 -23 -9 -9 3 -12 14 -9 30 2 13 -1 31 -8 39 -7 9 -10 19
-6 23 4 4 13 -1 20 -10 7 -10 16 -15 19 -12 9 9 -16 44 -30 44 -7 0 -14 7 -14
15 -1 8 -2 20 -3 27 0 7 -10 15 -21 18 -11 3 -21 13 -21 23 -2 17 -1 17 17 1
18 -17 19 -16 19 28 0 51 -13 67 -59 74 -25 4 -30 2 -25 -10 4 -9 0 -18 -10
-22 -9 -3 -14 -10 -11 -14 8 -12 -6 -41 -16 -34 -5 3 -9 0 -9 -6 0 -6 -5 -8
-11 -4 -7 4 -7 9 -2 13 5 3 9 20 8 36 -2 22 -7 29 -19 27 -15 -3 -21 9 -17 32
1 4 -5 13 -12 20 -8 6 -17 23 -19 38 -5 26 -5 26 18 10 13 -9 22 -22 19 -29
-2 -7 0 -15 6 -19 17 -10 19 1 4 29 -8 15 -12 34 -9 41 3 7 -2 16 -11 20 -11
4 -15 16 -12 41 2 19 7 38 10 42 14 13 7 25 -8 13 -8 -7 -15 -19 -15 -26 0 -8
-5 -14 -11 -14 -7 0 -9 11 -6 29 5 23 1 31 -19 41 -17 10 -24 22 -24 43 0 25
-2 28 -15 17 -13 -11 -14 -10 -10 3 5 10 1 15 -12 14 -12 -2 -17 4 -16 17 1
11 -5 25 -13 31 -13 9 -13 14 0 40 14 28 13 50 -3 41 -4 -3 -8 13 -9 34 -1 22
3 40 8 40 7 0 7 6 1 19 -6 10 -7 22 -3 26 4 5 2 6 -3 2 -21 -11 -38 11 -38 49
-1 22 3 38 8 36 6 -2 8 -11 7 -20 -3 -13 -1 -14 12 -3 15 12 15 15 -1 26 -9 7
-14 19 -10 29 4 9 2 16 -3 16 -5 0 -14 10 -21 22 -9 17 -9 20 3 15 8 -3 21 -1
29 4 11 7 12 12 2 29 -17 26 -16 30 2 30 8 0 16 6 16 13 1 6 2 19 3 27 0 8 -6
21 -14 28 -12 10 -10 10 12 1 22 -10 25 -15 17 -26 -10 -11 -7 -12 12 -4 14 5
23 16 22 27 -1 10 3 26 8 36 7 14 6 16 -6 12 -15 -6 -16 -2 -20 61 0 11 -4 30
-9 43 -6 19 -10 21 -22 11 -8 -6 -17 -9 -21 -5 -11 11 6 20 42 22 33 3 35 2
29 -21 -4 -15 -2 -25 4 -25 16 0 42 30 42 48 0 13 2 14 9 3 6 -10 13 -10 28
-3z m226 -13 c-3 -9 -8 -14 -10 -11 -3 3 -2 9 2 15 9 16 15 13 8 -4z m-394
-12 c0 -11 -3 -13 -6 -5 -2 6 -10 9 -15 6 -7 -4 -8 -2 -4 4 11 18 26 14 25 -5z
m278 -25 c-3 -8 -6 -5 -6 6 -1 11 2 17 5 13 3 -3 4 -12 1 -19z m346 -16 c-4
-18 -8 -20 -19 -11 -12 10 -11 14 3 24 22 16 24 15 16 -13z m-563 8 c0 -5 -5
-10 -11 -10 -5 0 -7 5 -4 10 3 6 8 10 11 10 2 0 4 -4 4 -10z m-200 -30 c0 -16
-4 -30 -10 -30 -5 0 -8 13 -7 30 3 39 17 39 17 0z m474 24 c25 -9 19 -24 -9
-24 -24 0 -32 10 -18 23 8 8 8 8 27 1z m191 -23 c-3 -6 -11 -11 -17 -11 -6 0
-6 6 2 15 14 17 26 13 15 -4z m-505 -1 c0 -5 -2 -10 -4 -10 -3 0 -8 5 -11 10
-3 6 -1 10 4 10 6 0 11 -4 11 -10z m380 -26 c0 -8 -5 -12 -10 -9 -6 4 -8 11
-5 16 9 14 15 11 15 -7z m405 -14 c-3 -5 -11 -10 -16 -10 -6 0 -7 5 -4 10 3 6
11 10 16 10 6 0 7 -4 4 -10z m362 -55 c0 -8 -4 -12 -9 -9 -5 3 -6 10 -3 15 9
13 12 11 12 -6z m63 -21 c0 -8 -4 -14 -10 -14 -5 0 -10 5 -10 11 0 5 -6 7 -12
3 -9 -5 -9 -3 1 9 15 18 31 14 31 -9z m-1232 -14 c-7 -10 -14 -17 -17 -15 -4
4 18 35 25 35 2 0 -1 -9 -8 -20z m1159 -40 c-1 -16 -6 -30 -10 -30 -4 0 -3 -9
3 -21 12 -21 7 -49 -7 -49 -10 0 -10 101 0 118 13 19 16 14 14 -18z m-1180
-24 c-16 -18 -31 -8 -16 10 6 7 15 11 20 8 5 -3 3 -11 -4 -18z m1210 -11 c0
-8 -6 -15 -13 -15 -8 0 -11 6 -8 15 4 8 9 15 13 15 4 0 8 -7 8 -15z m-1227
-46 c0 -5 -4 -9 -8 -9 -5 0 -9 7 -9 15 0 8 4 12 9 9 4 -3 8 -9 8 -15z m1240
-35 c0 -8 -6 -14 -12 -14 -7 0 -13 11 -13 24 0 18 3 22 13 14 6 -6 12 -17 12
-24z m-50 -8 c0 -11 -19 -15 -25 -6 -3 5 1 10 9 10 9 0 16 -2 16 -4z m2005 -5
c3 -5 1 -12 -5 -16 -5 -3 -10 1 -10 9 0 18 6 21 15 7z m-1965 -23 c0 -4 -4 -8
-9 -8 -6 0 -12 4 -15 8 -3 5 1 9 9 9 8 0 15 -4 15 -9z m-1260 -8 c0 -5 -5 -10
-11 -10 -5 0 -7 5 -4 10 3 6 8 10 11 10 2 0 4 -4 4 -10z m1350 1 c0 -5 -7 -11
-14 -14 -10 -4 -13 -1 -9 9 6 15 23 19 23 5z m1881 -24 c-8 -8 -11 -7 -11 4 0
20 13 34 18 19 3 -7 -1 -17 -7 -23z m-39 -71 c-6 -12 -22 15 -22 39 0 17 2 17
14 -5 7 -14 11 -29 8 -34z m-3132 -16 c-20 -13 -33 -13 -25 0 3 6 14 10 23 10
15 0 15 -2 2 -10z m1012 -115 c4 -20 1 -25 -14 -25 -14 0 -18 5 -14 16 3 9 6
20 6 25 0 20 18 7 22 -16z m228 1 c0 -3 -4 -8 -10 -11 -5 -3 -10 -1 -10 4 0 6
5 11 10 11 6 0 10 -2 10 -4z m-1135 -216 c-4 -12 -2 -20 5 -20 6 0 8 -4 5 -10
-10 -16 -22 -12 -22 8 -2 22 5 42 12 42 4 0 3 -9 0 -20z m39 -145 c-4 -9 0
-15 10 -15 11 0 15 -8 14 -24 -2 -26 -18 -25 -18 0 0 8 -4 13 -8 10 -4 -2 -9
6 -10 20 -1 13 3 24 8 24 5 0 7 -7 4 -15z m2291 -35 c3 -6 -1 -7 -9 -4 -18 7
-21 14 -7 14 6 0 13 -4 16 -10z m-105 -20 c0 -5 -2 -10 -4 -10 -3 0 -8 5 -11
10 -3 6 -1 10 4 10 6 0 11 -4 11 -10z m-2163 -67 c-3 -10 -5 -2 -5 17 0 19 2
27 5 18 2 -10 2 -26 0 -35z m2848 37 c3 -5 1 -10 -4 -10 -6 0 -11 5 -11 10 0
6 2 10 4 10 3 0 8 -4 11 -10z m-2679 -11 c3 -6 0 -15 -7 -20 -22 -14 -28 -11
-22 11 6 22 18 26 29 9z m2564 -60 c0 -6 -4 -7 -10 -4 -5 3 -10 11 -10 16 0 6
5 7 10 4 6 -3 10 -11 10 -16z m-2600 -20 c-7 -11 -14 -18 -17 -15 -3 3 0 12 7
21 18 21 23 19 10 -6z m2558 -44 c-3 -3 -9 2 -12 12 -6 14 -5 15 5 6 7 -7 10
-15 7 -18z m-2498 -18 c0 -8 -7 -14 -15 -14 -16 0 -19 9 -8 20 11 11 23 8 23
-6z m-140 -11 c0 -2 -8 -10 -17 -17 -16 -13 -17 -12 -4 4 13 16 21 21 21 13z
m72 -21 c3 -13 1 -22 -3 -19 -9 5 -13 44 -5 44 2 0 6 -11 8 -25z m73 -23 c-3
-3 -11 0 -18 7 -9 10 -8 11 6 5 10 -3 15 -9 12 -12z m609 -37 c-9 -14 -26 -25
-38 -25 -19 1 -18 3 9 25 38 32 50 32 29 0z m-657 9 c-3 -3 -12 -4 -19 -1 -8
3 -5 6 6 6 11 1 17 -2 13 -5z m-4 -39 c-7 -21 -13 -19 -13 6 0 11 4 18 10 14
5 -3 7 -12 3 -20z m1536 16 c26 -17 5 -78 -37 -106 -20 -14 -45 -25 -54 -25
-10 0 -18 -4 -18 -9 0 -9 -95 -27 -120 -22 -8 1 -38 3 -67 4 -53 2 -81 17 -69
36 4 6 18 11 30 11 13 0 29 7 36 15 8 10 16 12 19 6 5 -7 17 -5 35 4 15 8 33
12 40 8 18 -12 40 -10 58 5 9 8 22 11 27 7 6 -3 11 1 11 11 0 13 3 14 15 4 12
-10 18 -10 32 1 35 28 44 39 38 49 -8 12 5 13 24 1z m-1439 -48 c0 -15 -5 -23
-12 -21 -18 6 -18 45 -2 45 8 0 14 -11 14 -24z m1608 7 c13 -22 -13 -59 -29
-43 -6 6 -18 9 -25 6 -8 -3 -14 1 -14 11 0 38 49 56 68 26z m-128 6 c0 -3 -4
-8 -10 -11 -5 -3 -10 -1 -10 4 0 6 5 11 10 11 6 0 10 -2 10 -4z m-1530 -30 c0
-8 -4 -18 -10 -21 -5 -3 -10 3 -10 14 0 12 5 21 10 21 6 0 10 -6 10 -14z
m1746 -15 c-11 -17 -25 -13 -21 7 2 9 4 19 4 22 1 2 6 -1 12 -7 6 -6 8 -16 5
-22z m-666 -51 c8 -5 12 -12 8 -15 -10 -10 -49 5 -43 16 8 11 16 11 35 -1z
m-130 -30 c0 -5 -5 -10 -11 -10 -5 0 -7 5 -4 10 3 6 8 10 11 10 2 0 4 -4 4
-10z m1246 -122 c4 -6 2 -14 -4 -16 -7 -2 -10 -7 -7 -12 3 -4 -2 -10 -10 -14
-8 -3 -15 -1 -15 4 0 27 -19 5 -30 -35 -18 -64 -36 -58 -32 10 2 30 8 55 13
55 5 0 9 -8 9 -17 0 -13 5 -11 18 10 17 28 45 36 58 15z m-126 -94 c0 -8 -4
-12 -10 -9 -5 3 -10 10 -10 16 0 5 5 9 10 9 6 0 10 -7 10 -16z m-60 -14 c0 -5
-4 -10 -10 -10 -5 0 -10 5 -10 10 0 6 5 10 10 10 6 0 10 -4 10 -10z m-1680
-10 c0 -5 -2 -10 -4 -10 -3 0 -8 5 -11 10 -3 6 -1 10 4 10 6 0 11 -4 11 -10z
m1352 -32 c-16 -16 -15 -25 3 -25 8 0 15 5 15 10 0 5 7 4 15 -3 8 -7 15 -22
15 -34 -1 -20 -1 -20 -14 -3 -13 16 -14 16 -19 -4 -3 -12 -10 -18 -17 -14 -7
4 -10 0 -8 -11 2 -11 -3 -19 -12 -19 -10 0 -14 -8 -12 -27 3 -23 -2 -30 -35
-43 -21 -9 -55 -16 -77 -17 -29 0 -40 -5 -43 -19 -5 -17 -12 -19 -57 -13 -28
4 -53 6 -56 6 -37 0 -50 -4 -45 -12 4 -6 -7 -8 -27 -6 -18 3 -43 -2 -54 -9
-12 -8 -31 -11 -43 -8 -11 3 -21 1 -21 -5 0 -15 -31 -24 -45 -12 -10 8 -16 6
-24 -7 -9 -16 -10 -15 -11 8 0 22 -5 28 -30 31 -16 3 -34 0 -39 -5 -7 -7 -15
-7 -23 0 -7 6 -25 9 -40 8 -25 -3 -26 -3 -10 16 9 10 23 19 31 19 12 0 12 3 3
12 -8 8 -15 9 -20 3 -4 -6 -16 -15 -27 -21 -11 -6 -27 -25 -35 -42 -8 -17 -21
-32 -27 -32 -18 0 -16 15 3 35 9 8 13 22 10 30 -7 19 -26 19 -26 0 0 -8 -7
-15 -15 -15 -9 0 -15 9 -15 25 0 22 -4 25 -25 21 -20 -4 -28 1 -37 20 -12 27
-28 32 -28 9 0 -8 -4 -15 -10 -15 -13 0 -13 22 1 57 7 15 12 40 12 55 0 29 25
47 38 26 6 -9 11 -8 25 3 13 10 18 11 21 2 2 -7 11 -9 20 -6 11 4 14 2 9 -5
-4 -7 3 -14 18 -18 14 -3 28 -15 31 -25 4 -11 11 -17 16 -13 5 3 7 9 4 14 -3
5 -1 11 4 14 4 3 8 -4 7 -16 -1 -13 6 -22 16 -24 28 -4 78 -28 78 -38 0 -4 11
-5 25 -2 14 4 25 2 25 -4 0 -5 7 -10 15 -10 10 0 15 -10 15 -29 0 -29 31 -54
38 -32 2 6 9 8 15 4 7 -4 6 0 -1 10 -8 9 -11 20 -8 26 3 5 3 24 -1 42 -7 33
-7 33 -14 9 -7 -24 -7 -24 -8 5 -2 29 -2 29 -16 11 -8 -11 -15 -15 -15 -9 0
16 21 28 43 25 24 -4 21 15 -4 21 -14 4 -18 10 -13 18 5 9 2 10 -9 6 -10 -4
-17 -1 -17 6 0 7 9 13 20 13 11 0 20 -6 20 -13 0 -18 20 -16 42 4 12 10 18 12
18 4 0 -7 5 -9 11 -6 6 4 8 13 5 20 -3 8 9 4 29 -8 19 -13 34 -31 35 -42 0
-17 2 -17 10 -5 5 9 10 22 12 29 6 24 45 58 67 56 30 -2 36 -12 12 -24 -17
-10 -19 -15 -9 -42 l11 -31 19 41 c16 35 43 61 63 61 3 0 3 -12 0 -27 -5 -28
-5 -28 5 -3 15 34 18 35 37 18 10 -9 30 -18 46 -20 24 -5 26 -3 15 10 -11 13
-10 15 5 9 10 -4 23 -7 28 -7 5 0 10 -8 10 -17 1 -17 2 -17 6 0 2 9 11 17 19
17 8 0 17 7 21 15 3 9 8 13 11 10 3 -3 0 -11 -6 -17z m-1357 2 c-3 -5 -11 -10
-16 -10 -6 0 -7 5 -4 10 3 6 11 10 16 10 6 0 7 -4 4 -10z m985 -12 c0 -16 -3
-19 -11 -11 -6 6 -8 16 -5 22 11 17 16 13 16 -11z m441 -11 c-1 -12 -15 -9
-19 4 -3 6 1 10 8 8 6 -3 11 -8 11 -12z m-656 -66 c-8 -36 -25 -41 -25 -8 0
22 19 51 28 43 2 -3 1 -18 -3 -35z m1015 19 c0 -11 -2 -20 -4 -20 -2 0 -6 9
-9 20 -3 11 -1 20 4 20 5 0 9 -9 9 -20z m-1800 -64 c0 -3 -4 -8 -10 -11 -5 -3
-10 -1 -10 4 0 6 5 11 10 11 6 0 10 -2 10 -4z m454 -83 c-1 -36 -3 -38 -35
-40 -34 -3 -34 -3 -11 13 12 9 22 22 22 28 0 9 19 36 25 36 0 0 0 -17 -1 -37z
m51 -3 c-3 -5 1 -10 10 -10 12 0 14 -4 5 -19 -13 -25 -13 -34 0 -26 6 3 7 -1
4 -9 -9 -23 -12 -20 -23 21 -9 33 -7 53 5 53 3 0 2 -4 -1 -10z m205 -55 c0 -5
-5 -3 -10 5 -5 8 -10 20 -10 25 0 6 5 3 10 -5 5 -8 10 -19 10 -25z m-110 -31
c0 -8 -5 -12 -10 -9 -6 4 -8 11 -5 16 9 14 15 11 15 -7z m90 12 c0 -3 -4 -8
-10 -11 -5 -3 -10 -1 -10 4 0 6 5 11 10 11 6 0 10 -2 10 -4z m-250 -16 c0 -5
-5 -10 -11 -10 -5 0 -7 5 -4 10 3 6 8 10 11 10 2 0 4 -4 4 -10z m103 -10 c3
-11 1 -20 -4 -20 -5 0 -9 9 -9 20 0 11 2 20 4 20 2 0 6 -9 9 -20z m278 -17
c-12 -20 -14 -14 -5 12 4 9 9 14 11 11 3 -2 0 -13 -6 -23z m-304 -35 c-3 -8
-6 -5 -6 6 -1 11 2 17 5 13 3 -3 4 -12 1 -19z m1126 -45 c-3 -7 0 -13 6 -13 6
0 11 -7 11 -17 0 -9 -3 -14 -6 -10 -3 3 -15 -4 -26 -15 -11 -11 -23 -16 -26
-12 -4 3 -1 9 6 11 6 3 10 9 6 14 -8 14 -24 0 -24 -22 0 -10 7 -19 15 -19 17
0 20 -25 5 -35 -17 -10 -11 -25 10 -25 12 0 20 -7 20 -16 0 -14 -3 -14 -15 -4
-13 11 -15 8 -15 -14 0 -21 -5 -26 -25 -26 -14 0 -29 8 -35 20 -16 29 -50 46
-61 29 -7 -12 -11 -11 -19 1 -8 13 -10 12 -10 -4 0 -12 -5 -16 -16 -12 -9 3
-20 6 -25 6 -5 0 -9 5 -9 10 0 7 6 7 20 0 24 -13 27 2 4 24 -14 15 -14 16 0
16 10 0 16 9 16 24 0 25 21 36 73 36 17 0 27 5 27 15 0 9 -6 12 -15 9 -10 -4
-13 -2 -10 8 4 10 16 13 35 10 17 -2 35 2 44 10 18 18 46 19 39 1z m-842 -50
c-8 -15 -10 -15 -11 -2 0 17 10 32 18 25 2 -3 -1 -13 -7 -23z m-981 -3 c0 -5
-2 -10 -4 -10 -3 0 -8 5 -11 10 -3 6 -1 10 4 10 6 0 11 -4 11 -10z m1164 -25
c-4 -8 -8 -15 -10 -15 -2 0 -4 7 -4 15 0 8 4 15 10 15 5 0 7 -7 4 -15z m676 8
c0 -5 -4 -15 -10 -23 -11 -18 -25 -7 -17 15 6 15 27 21 27 8z m-225 -13 c3 -5
1 -10 -4 -10 -6 0 -11 5 -11 10 0 6 2 10 4 10 3 0 8 -4 11 -10z m-654 -27 c-8
-15 -10 -15 -11 -2 0 17 10 32 18 25 2 -3 -1 -13 -7 -23z m138 -13 c15 0 36
-6 46 -14 17 -12 23 -12 46 5 28 19 65 26 55 10 -4 -5 -3 -16 0 -25 5 -12 10
-14 19 -6 9 8 14 6 18 -4 7 -16 -9 -30 -33 -31 -8 0 -22 -14 -30 -32 -15 -32
-48 -49 -64 -33 -5 5 -28 -2 -57 -18 -39 -22 -50 -25 -61 -14 -10 10 -9 14 10
18 12 4 22 11 22 16 0 6 -7 7 -16 4 -8 -3 -12 -2 -9 4 8 12 8 12 -33 1 -20 -6
-32 -6 -32 0 0 5 5 9 10 9 6 0 9 3 9 8 -6 36 5 68 33 95 20 20 33 27 36 19 2
-6 16 -12 31 -12z m901 -5 c0 -18 -4 -23 -16 -18 -10 4 -22 -1 -29 -10 -11
-15 -14 -16 -25 -2 -7 8 -8 15 -3 15 6 0 20 9 33 20 30 26 40 25 40 -5z m-107
-8 c4 3 7 1 7 -6 0 -17 -32 -10 -38 9 -4 12 -3 13 10 3 8 -7 18 -10 21 -6z
m-543 -13 c0 -8 -5 -12 -10 -9 -6 4 -8 11 -5 16 9 14 15 11 15 -7z m-378 -26
c-6 -6 -15 -8 -19 -4 -4 4 -1 11 7 16 19 12 27 3 12 -12z m578 -4 c6 -14 14
-23 19 -19 12 7 25 -31 15 -47 -5 -8 -10 -4 -15 10 -5 13 -17 22 -29 22 -14 0
-20 7 -20 23 0 21 7 37 17 37 2 0 8 -12 13 -26z m-1440 -6 c0 -6 -6 -5 -15 2
-8 7 -15 14 -15 16 0 2 7 1 15 -2 8 -4 15 -11 15 -16z m1353 -12 c13 -25 16
-27 17 -11 1 15 4 13 10 -8 5 -17 5 -38 -1 -51 -7 -14 -7 -30 0 -46 10 -25 10
-25 11 5 l0 30 16 -31 c14 -28 14 -38 1 -88 -9 -32 -11 -58 -6 -62 15 -9 10
-34 -6 -34 -8 0 -15 7 -15 16 0 10 -6 14 -14 11 -11 -4 -12 2 -6 29 9 38 1 44
-18 14 -7 -11 -19 -20 -28 -20 -8 0 -12 5 -9 10 3 6 2 10 -4 10 -6 0 -8 7 -5
15 4 8 12 15 20 15 8 0 14 4 14 8 0 5 -13 7 -30 4 -27 -4 -30 -1 -30 22 0 15
8 31 20 38 11 7 20 20 20 29 0 22 24 41 42 34 27 -11 24 19 -4 47 -27 26 -51
20 -28 -7 6 -8 9 -19 5 -26 -6 -8 -10 -7 -16 2 -6 10 -9 5 -9 -14 0 -17 -4
-26 -11 -22 -5 4 -20 -1 -32 -11 -12 -10 -16 -12 -9 -4 14 16 16 30 4 30 -5 0
-15 -12 -22 -26 -18 -33 -48 -50 -63 -35 -15 15 47 67 91 76 49 9 38 24 -15
19 -55 -5 -66 -11 -59 -30 3 -8 -1 -14 -9 -14 -8 0 -15 8 -15 19 0 22 46 55
66 47 8 -3 14 -1 14 4 0 6 14 10 30 10 30 0 41 15 18 23 -7 2 1 4 18 4 26 0
35 -7 47 -31z m180 -27 c10 8 17 9 22 1 3 -5 -1 -10 -9 -10 -20 0 -21 -36 -1
-44 8 -3 15 -14 15 -25 0 -18 -3 -19 -30 -10 -32 12 -32 12 -33 44 -1 48 3 61
12 46 8 -12 12 -12 24 -2z m-103 -18 c0 -5 -3 -17 -6 -26 -5 -12 -9 -14 -14
-4 -5 7 -6 18 -3 26 6 15 23 18 23 4z m17 -28 c-3 -10 -5 -4 -5 12 0 17 2 24
5 18 2 -7 2 -21 0 -30z m-552 -23 c-3 -5 -11 -10 -16 -10 -6 0 -7 5 -4 10 3 6
11 10 16 10 6 0 7 -4 4 -10z m643 -40 c11 0 24 -4 27 -10 3 -5 -3 -10 -13 -10
-18 0 -19 -3 -9 -35 6 -19 14 -35 19 -35 4 0 8 -7 8 -15 0 -8 8 -15 17 -15 13
0 14 -3 5 -12 -9 -9 -16 -8 -30 5 -10 9 -22 14 -26 10 -4 -5 -4 5 0 22 7 28 7
29 -10 12 -10 -9 -19 -17 -22 -17 -9 0 -3 20 11 34 14 13 12 18 -10 42 l-25
27 -2 -34 c0 -19 0 -42 0 -52 1 -11 -2 -15 -9 -11 -6 3 -8 17 -5 29 5 18 1 25
-14 30 -13 4 -20 15 -20 32 0 20 4 24 20 20 11 -3 23 -1 26 5 4 5 13 3 23 -6
10 -9 27 -16 39 -16z m-301 -12 c-3 -8 -6 -5 -6 6 -1 11 2 17 5 13 3 -3 4 -12
1 -19z m2761 -80 c-3 -57 -11 -114 -17 -128 -11 -24 -11 -24 -5 7 3 17 1 34
-6 38 -7 4 -5 13 5 28 10 14 15 45 15 89 0 38 3 68 6 68 4 0 4 -46 2 -102z
m-2496 -68 c-8 -21 -9 -22 -16 -5 -4 11 -2 22 6 26 17 11 20 6 10 -21z m48
-20 c8 -5 5 -9 -9 -13 -17 -4 -21 -1 -21 21 0 19 3 23 9 13 5 -7 14 -17 21
-21z m-191 -17 c0 -25 -1 -26 -9 -8 -12 27 -12 35 0 35 6 0 10 -12 9 -27z m61
1 c0 -7 -27 -34 -34 -34 -2 0 -4 8 -3 18 1 15 37 30 37 16z m40 -73 c0 -13
-10 -14 -28 -3 -7 5 -10 16 -6 25 5 14 8 14 20 2 8 -7 14 -18 14 -24z m3163
-113 c29 -33 29 -44 -1 -103 -8 -16 -31 -50 -52 -75 -20 -25 -59 -76 -85 -115
-59 -84 -147 -194 -207 -255 -130 -132 -338 -321 -388 -352 -16 -9 -31 -21
-34 -27 -4 -5 -14 -7 -23 -4 -9 4 -21 0 -27 -9 -6 -8 -15 -17 -21 -19 -5 -2
-9 -10 -9 -17 1 -7 0 -11 -2 -9 -3 3 -26 -15 -52 -39 -26 -24 -50 -44 -53 -44
-3 0 -25 -18 -50 -41 -45 -41 -77 -59 -106 -59 -14 0 -15 10 -10 65 4 41 14
76 26 93 10 15 19 31 19 37 0 5 14 16 31 25 21 10 30 21 27 32 -2 10 0 21 5
24 5 3 7 9 4 14 -3 5 9 22 26 39 17 18 27 36 23 42 -4 7 -3 9 2 6 6 -3 16 -2
23 2 11 7 11 13 1 32 -11 20 -10 25 9 37 11 8 21 21 21 28 0 8 3 14 8 14 11 0
32 52 25 63 -3 6 -1 7 5 3 6 -3 13 6 17 24 4 16 11 30 16 30 6 0 5 -8 -1 -20
-12 -23 -6 -40 16 -40 8 0 13 4 10 8 -9 14 16 82 30 82 14 0 40 39 36 54 -5
16 29 58 43 52 7 -2 16 2 19 10 4 10 2 12 -6 8 -7 -4 -8 -3 -4 4 4 7 18 12 32
12 13 0 24 5 24 11 0 5 5 7 12 3 7 -5 8 -3 4 5 -5 7 -1 20 9 31 9 10 12 20 7
23 -9 6 -42 -27 -42 -43 0 -15 -17 -12 -23 4 -6 14 10 36 26 36 18 0 64 47 61
63 -1 9 2 15 7 12 4 -3 16 3 26 14 15 19 17 19 30 3 7 -9 13 -12 12 -7 -1 6 3
21 10 35 11 24 11 24 7 2 -4 -19 -2 -21 10 -11 8 6 14 25 14 41 0 17 4 27 10
23 6 -3 13 1 16 9 3 9 17 16 30 16 13 0 24 5 24 10 0 15 44 30 51 17 4 -5 10
0 13 11 5 14 13 19 27 17 12 -2 27 5 37 16 24 29 57 46 49 27 -4 -12 1 -14 21
-11 15 3 35 5 45 6 9 1 17 5 17 9 0 5 11 13 25 20 13 6 22 14 20 18 -3 4 8 8
23 8 18 0 36 -10 55 -30z m-721 -160 c-7 -7 -12 -8 -12 -2 0 14 12 26 19 19 2
-3 -1 -11 -7 -17z m-21 -51 c-10 -9 -11 -8 -5 6 3 10 9 15 12 12 3 -3 0 -11
-7 -18z m-41 -104 c0 -17 -19 -37 -27 -29 -4 5 -2 11 5 13 6 3 10 9 6 14 -3 5
0 9 5 9 6 0 11 -3 11 -7z m-36 -67 c-3 -9 -10 -13 -15 -10 -5 3 -3 11 4 19 15
16 19 13 11 -9z m-40 -73 c-29 -55 -41 -69 -50 -60 -4 3 1 13 10 22 9 9 16 23
16 31 0 8 4 13 9 10 5 -3 12 5 15 19 4 14 11 25 16 25 5 0 -2 -21 -16 -47z
m-54 -81 c0 -10 -22 -32 -32 -32 -5 0 -3 9 4 20 13 20 28 27 28 12z m-2779
-109 c23 -48 43 -105 44 -128 4 -52 5 -54 15 -30 8 20 9 19 9 -1 1 -12 8 -27
16 -34 22 -19 10 -180 -14 -180 -7 0 -9 -20 -12 -122 -2 -54 -5 -68 -18 -69
-12 0 -11 -2 3 -8 18 -7 18 -8 2 -14 -28 -11 -34 -8 -31 11 2 9 4 21 4 25 1 5
5 6 9 3 5 -3 8 21 8 52 -1 31 4 82 11 112 7 30 14 81 15 112 2 32 8 58 13 58
6 0 2 5 -8 11 -24 14 -37 3 -37 -31 0 -16 -4 -32 -10 -35 -5 -3 -10 -15 -10
-26 0 -10 -4 -19 -8 -19 -5 0 -7 -13 -6 -29 3 -41 -21 -160 -35 -174 -14 -14
-14 -2 -1 23 6 11 6 21 1 25 -5 3 -12 -3 -16 -14 -8 -26 5 -72 18 -64 6 3 7 1
3 -5 -4 -7 -14 -12 -22 -12 -8 0 -14 -6 -14 -12 0 -9 -4 -8 -10 2 -5 8 -10 13
-11 10 -8 -45 -11 -56 -19 -64 -5 -5 -7 -1 -4 11 3 11 -1 27 -10 35 -37 38
-26 430 17 553 17 50 53 115 64 115 1 0 21 -39 44 -87z m2724 37 c3 -5 1 -10
-4 -10 -6 0 -11 5 -11 10 0 6 2 10 4 10 3 0 8 -4 11 -10z m-22 -37 c-9 -26
-44 -75 -50 -69 -6 6 40 86 49 86 4 0 5 -8 1 -17z m-85 -123 c-7 -10 -14 -18
-15 -16 -6 6 9 36 18 36 5 0 4 -9 -3 -20z m-111 -172 c-3 -8 -6 -5 -6 6 -1 11
2 17 5 13 3 -3 4 -12 1 -19z m-272 -23 c6 -1 16 3 23 8 15 11 16 -5 3 -50 -8
-27 -7 -31 7 -26 10 4 13 2 8 -5 -4 -7 -2 -12 4 -12 6 0 8 -4 5 -10 -3 -5 -2
-10 3 -10 15 0 12 -58 -5 -71 -13 -12 -13 -14 1 -19 14 -5 12 -11 -13 -45 -33
-43 -37 -60 -20 -71 8 -4 9 1 4 17 -7 22 -7 22 10 6 14 -15 15 -20 3 -35 -7
-9 -16 -21 -20 -27 -31 -41 -78 -88 -78 -77 0 6 -5 12 -11 12 -5 0 -7 -5 -4
-10 10 -17 -5 -52 -20 -46 -10 3 -12 0 -8 -11 5 -12 2 -15 -10 -10 -9 3 -17 3
-17 -1 0 -5 -35 -29 -77 -54 -76 -44 -118 -68 -253 -140 -36 -20 -108 -60
-160 -90 -142 -82 -313 -159 -326 -146 -5 6 25 87 59 158 15 31 28 64 30 75 2
11 9 31 16 43 7 13 15 36 17 50 3 15 10 44 15 66 6 21 8 40 5 43 -3 3 0 15 6
27 12 20 13 25 16 54 1 6 12 12 25 12 l22 0 -23 18 -23 18 20 26 c25 31 26 38
6 38 -17 0 -20 16 -5 25 5 3 7 12 3 20 -3 8 0 15 6 15 15 0 14 37 -1 43 -8 3
-3 9 12 15 14 6 18 11 11 11 -12 1 -12 4 -3 13 9 9 18 6 37 -12 18 -17 28 -21
36 -13 7 7 3 12 -15 17 -22 5 -25 10 -17 25 6 10 8 21 5 23 -2 3 29 5 70 5 57
1 73 -2 69 -12 -6 -18 -32 -27 -54 -20 -9 3 -20 1 -24 -5 -3 -5 -2 -10 4 -10
6 0 8 -6 5 -14 -3 -9 5 -16 23 -20 29 -8 53 12 53 44 0 9 7 17 15 17 8 0 12
-4 9 -8 -4 -7 35 -24 40 -17 2 1 8 12 15 23 9 17 10 13 7 -23 -3 -25 -1 -40 5
-37 5 4 9 14 9 24 0 18 8 21 68 22 17 1 34 5 37 10 3 4 13 5 22 2 12 -5 15 -2
10 9 -7 21 19 44 61 53 27 6 33 11 29 27 -5 17 -2 19 20 13 20 -5 24 -3 20 9
-4 10 -1 16 9 16 8 0 12 -5 8 -11 -4 -8 -1 -8 12 -1 11 5 36 9 57 8 21 -1 43
4 49 11 5 7 15 10 22 6 6 -4 16 -8 21 -8z m245 -25 c0 -5 -5 -10 -11 -10 -5 0
-7 5 -4 10 3 6 8 10 11 10 2 0 4 -4 4 -10z m-470 -24 c0 -2 -7 -7 -16 -10 -8
-3 -12 -2 -9 4 6 10 25 14 25 6z m-1905 -36 c3 -6 -1 -7 -9 -4 -18 7 -21 14
-7 14 6 0 13 -4 16 -10z m1575 6 c0 -2 -7 -7 -16 -10 -8 -3 -12 -2 -9 4 6 10
25 14 25 6z m-157 -26 c-3 -11 -9 -20 -14 -20 -11 0 -11 3 -3 24 9 23 23 20
17 -4z m227 -30 c0 -5 -5 -10 -11 -10 -5 0 -7 5 -4 10 3 6 8 10 11 10 2 0 4
-4 4 -10z m-1325 -60 c3 -5 1 -10 -4 -10 -6 0 -11 5 -11 10 0 6 2 10 4 10 3 0
8 -4 11 -10z m1905 -40 c0 -5 -5 -10 -11 -10 -5 0 -7 5 -4 10 3 6 8 10 11 10
2 0 4 -4 4 -10z m-30 -10 c0 -5 -2 -10 -4 -10 -3 0 -8 5 -11 10 -3 6 -1 10 4
10 6 0 11 -4 11 -10z m-1765 -40 c8 -13 -5 -13 -25 0 -13 8 -13 10 2 10 9 0
20 -4 23 -10z m-495 -77 c0 -15 -2 -15 -24 -7 -22 9 -20 20 4 20 11 0 20 -6
20 -13z m-10 -43 c0 -5 -8 -10 -17 -10 -15 0 -16 2 -3 10 19 12 20 12 20 0z
m-122 -96 c1 -14 -2 -23 -8 -19 -12 7 -14 45 -2 45 4 0 9 -11 10 -26z m8 -75
c1 -16 -3 -29 -7 -29 -5 0 -9 17 -9 37 0 42 14 36 16 -8z m44 -4 c0 -8 -4 -15
-10 -15 -5 0 -7 7 -4 15 4 8 8 15 10 15 2 0 4 -7 4 -15z m365 -25 c-3 -5 -12
-10 -18 -10 -7 0 -6 4 3 10 19 12 23 12 15 0z m609 -31 c-3 -5 -10 -7 -15 -3
-5 3 -7 10 -3 15 3 5 10 7 15 3 5 -3 7 -10 3 -15z"/>
<path d="M4445 7801 c-6 -11 9 -23 19 -14 9 9 7 23 -3 23 -6 0 -12 -4 -16 -9z"/>
<path d="M4460 7730 c0 -5 5 -10 11 -10 5 0 7 5 4 10 -3 6 -8 10 -11 10 -2 0
-4 -4 -4 -10z"/>
<path d="M4740 7630 c0 -5 5 -10 11 -10 5 0 7 5 4 10 -3 6 -8 10 -11 10 -2 0
-4 -4 -4 -10z"/>
<path d="M3305 7560 c-3 -5 1 -10 10 -10 9 0 13 5 10 10 -3 6 -8 10 -10 10 -2
0 -7 -4 -10 -10z"/>
<path d="M4915 7550 c3 -5 8 -10 11 -10 2 0 4 5 4 10 0 6 -5 10 -11 10 -5 0
-7 -4 -4 -10z"/>
<path d="M4960 7540 c0 -13 18 -22 24 -11 3 5 -1 11 -9 15 -8 3 -15 1 -15 -4z"/>
<path d="M3163 7484 c0 -7 6 -10 14 -7 7 3 13 8 13 12 0 4 -6 8 -13 8 -8 0
-14 -6 -14 -13z"/>
<path d="M3255 7480 c3 -5 8 -10 11 -10 2 0 4 5 4 10 0 6 -5 10 -11 10 -5 0
-7 -4 -4 -10z"/>
<path d="M3350 7479 c0 -5 5 -7 10 -4 6 3 10 8 10 11 0 2 -4 4 -10 4 -5 0 -10
-5 -10 -11z"/>
<path d="M4792 7471 c4 -13 18 -16 19 -4 0 4 -5 9 -11 12 -7 2 -11 -2 -8 -8z"/>
<path d="M4895 7470 c-4 -6 1 -7 11 -3 11 4 15 2 11 -4 -7 -12 36 -24 50 -14
12 9 14 31 3 31 -5 0 -10 -5 -10 -11 0 -6 -5 -7 -12 -2 -20 12 -46 14 -53 3z"/>
<path d="M4763 7459 c14 -8 16 -14 6 -25 -10 -12 -9 -13 5 -8 10 4 15 13 12
21 -3 8 -6 17 -6 19 0 2 -8 4 -17 4 -17 -1 -17 -1 0 -11z"/>
<path d="M4808 7426 c-10 -7 -15 -16 -12 -19 4 -3 13 1 21 9 20 19 13 26 -9
10z"/>
<path d="M4731 7421 c-10 -6 -10 -10 -1 -16 13 -8 24 -1 19 14 -3 6 -10 7 -18
2z"/>
<path d="M5015 7360 c-3 -5 1 -10 10 -10 9 0 13 5 10 10 -3 6 -8 10 -10 10 -2
0 -7 -4 -10 -10z"/>
<path d="M3165 7200 c-8 -13 -1 -24 14 -19 6 3 7 10 2 18 -6 10 -10 10 -16 1z"/>
<path d="M3200 7186 c0 -9 5 -16 10 -16 6 0 10 4 10 9 0 6 -4 13 -10 16 -5 3
-10 -1 -10 -9z"/>
<path d="M5180 7010 c0 -5 5 -10 10 -10 6 0 10 5 10 10 0 6 -4 10 -10 10 -5 0
-10 -4 -10 -10z"/>
<path d="M3080 6995 c-7 -9 -11 -18 -8 -20 3 -3 11 1 18 10 7 9 11 18 8 20 -3
3 -11 -1 -18 -10z"/>
<path d="M5260 6981 c0 -5 5 -13 10 -16 6 -3 10 -2 10 4 0 5 -4 13 -10 16 -5
3 -10 2 -10 -4z"/>
<path d="M3090 6864 c0 -8 5 -12 10 -9 6 3 10 10 10 16 0 5 -4 9 -10 9 -5 0
-10 -7 -10 -16z"/>
<path d="M5170 6800 c-12 -7 -10 -9 7 -7 12 0 19 5 17 9 -6 10 -6 10 -24 -2z"/>
<path d="M5150 6773 c14 -16 31 -30 37 -30 9 0 10 4 3 12 -5 7 -8 15 -5 18 3
4 2 5 -2 2 -3 -3 -18 2 -32 12 l-25 16 24 -30z"/>
<path d="M5040 6770 c0 -5 5 -10 11 -10 5 0 7 5 4 10 -3 6 -8 10 -11 10 -2 0
-4 -4 -4 -10z"/>
<path d="M2981 6744 c0 -11 3 -14 6 -6 3 7 2 16 -1 19 -3 4 -6 -2 -5 -13z"/>
<path d="M2905 6730 c-3 -5 -1 -10 4 -10 6 0 11 5 11 10 0 6 -2 10 -4 10 -3 0
-8 -4 -11 -10z"/>
<path d="M5170 6714 c8 -8 21 -12 32 -8 13 4 25 -2 40 -21 11 -14 23 -24 26
-21 11 11 -48 57 -78 61 -27 4 -30 2 -20 -11z"/>
<path d="M5118 6683 c6 -2 18 -2 25 0 6 3 1 5 -13 5 -14 0 -19 -2 -12 -5z"/>
<path d="M5166 6651 c-3 -5 1 -11 9 -15 8 -3 15 -1 15 4 0 13 -18 22 -24 11z"/>
<path d="M4811 6637 c2 -1 12 -9 22 -16 15 -12 17 -12 11 3 -3 9 -13 16 -22
16 -8 0 -13 -1 -11 -3z"/>
<path d="M5204 6501 c10 -11 15 -25 10 -32 -4 -7 -3 -10 3 -6 12 8 67 -37 69
-55 3 -32 5 -38 12 -38 18 0 11 60 -9 74 -11 7 -18 19 -16 27 2 8 2 11 0 7 -5
-8 -53 12 -53 23 0 4 -8 10 -17 13 -15 6 -15 5 1 -13z"/>
<path d="M5185 6480 c3 -5 8 -10 11 -10 2 0 4 5 4 10 0 6 -5 10 -11 10 -5 0
-7 -4 -4 -10z"/>
<path d="M5315 6451 c-2 -5 6 -16 20 -25 30 -20 32 -13 5 14 -10 10 -22 15
-25 11z"/>
<path d="M3061 6434 c0 -11 3 -14 6 -6 3 7 2 16 -1 19 -3 4 -6 -2 -5 -13z"/>
<path d="M5211 6414 c0 -11 3 -14 6 -6 3 7 2 16 -1 19 -3 4 -6 -2 -5 -13z"/>
<path d="M2836 6373 c-6 -14 -5 -15 5 -6 7 7 10 15 7 18 -3 3 -9 -2 -12 -12z"/>
<path d="M3100 6350 c0 -11 4 -20 9 -20 5 0 7 9 4 20 -3 11 -7 20 -9 20 -2 0
-4 -9 -4 -20z"/>
<path d="M3042 6347 c-12 -6 -22 -16 -22 -23 0 -21 22 -28 34 -12 6 8 17 13
24 11 16 -6 16 5 -1 21 -9 9 -19 10 -35 3z"/>
<path d="M5310 6352 c0 -18 19 -24 37 -13 10 6 13 11 6 11 -6 0 -18 3 -27 6
-9 3 -16 1 -16 -4z"/>
<path d="M5165 6340 c3 -5 8 -10 11 -10 2 0 4 5 4 10 0 6 -5 10 -11 10 -5 0
-7 -4 -4 -10z"/>
<path d="M3035 6221 c-3 -5 -1 -12 5 -16 5 -3 10 1 10 9 0 18 -6 21 -15 7z"/>
<path d="M5155 6200 c3 -5 8 -10 11 -10 2 0 4 5 4 10 0 6 -5 10 -11 10 -5 0
-7 -4 -4 -10z"/>
<path d="M2871 6104 c0 -11 3 -14 6 -6 3 7 2 16 -1 19 -3 4 -6 -2 -5 -13z"/>
<path d="M3000 6090 c0 -5 5 -10 10 -10 6 0 10 5 10 10 0 6 -4 10 -10 10 -5 0
-10 -4 -10 -10z"/>
<path d="M3070 6025 c0 -8 7 -15 15 -15 8 0 15 4 15 9 0 5 -7 11 -15 15 -9 3
-15 0 -15 -9z"/>
<path d="M4540 5964 c0 -8 5 -12 10 -9 6 4 8 11 5 16 -9 14 -15 11 -15 -7z"/>
<path d="M4480 5916 c0 -2 8 -10 18 -17 15 -13 16 -12 3 4 -13 16 -21 21 -21
13z"/>
<path d="M4420 5800 c20 -13 33 -13 25 0 -3 6 -14 10 -23 10 -15 0 -15 -2 -2
-10z"/>
<path d="M3842 5754 c10 -10 20 -16 22 -13 3 3 -5 11 -17 18 -21 13 -21 12 -5
-5z"/>
<path d="M4425 5720 c3 -5 11 -10 16 -10 6 0 7 5 4 10 -3 6 -11 10 -16 10 -6
0 -7 -4 -4 -10z"/>
<path d="M4040 5610 c-9 -6 -10 -10 -3 -10 6 0 15 5 18 10 8 12 4 12 -15 0z"/>
<path d="M4225 4980 c3 -5 8 -10 11 -10 2 0 4 5 4 10 0 6 -5 10 -11 10 -5 0
-7 -4 -4 -10z"/>
<path d="M4393 4970 c-2 -19 8 -26 20 -14 7 7 -2 34 -12 34 -4 0 -7 -9 -8 -20z"/>
<path d="M4196 4922 c-3 -5 1 -9 9 -9 8 0 12 4 9 9 -3 4 -7 8 -9 8 -2 0 -6 -4
-9 -8z"/>
<path d="M4235 4850 c3 -5 8 -10 11 -10 2 0 4 5 4 10 0 6 -5 10 -11 10 -5 0
-7 -4 -4 -10z"/>
<path d="M6030 5440 c0 -5 5 -10 10 -10 6 0 10 5 10 10 0 6 -4 10 -10 10 -5 0
-10 -4 -10 -10z"/>
<path d="M5875 5300 c-3 -5 1 -10 10 -10 9 0 13 5 10 10 -3 6 -8 10 -10 10 -2
0 -7 -4 -10 -10z"/>
<path d="M5746 5226 c3 -8 13 -17 22 -21 13 -5 13 -2 -3 15 -21 24 -26 25 -19
6z"/>
<path d="M6040 5196 c0 -8 7 -16 15 -20 13 -4 14 -2 5 14 -13 23 -20 26 -20 6z"/>
<path d="M5705 5145 c35 -17 75 -19 75 -5 0 6 -12 10 -27 11 -16 0 -39 2 -53
4 -23 3 -22 2 5 -10z"/>
<path d="M6005 5140 c3 -5 8 -10 11 -10 2 0 4 5 4 10 0 6 -5 10 -11 10 -5 0
-7 -4 -4 -10z"/>
<path d="M5935 5120 c3 -5 11 -10 16 -10 6 0 7 5 4 10 -3 6 -11 10 -16 10 -6
0 -7 -4 -4 -10z"/>
<path d="M5980 5126 c0 -2 7 -7 16 -10 8 -3 12 -2 9 4 -6 10 -25 14 -25 6z"/>
<path d="M5610 5110 c-8 -5 -23 -7 -32 -4 -10 3 -18 3 -18 -1 0 -7 43 -23 82
-30 17 -3 35 -8 40 -11 4 -3 8 -1 8 5 0 5 -9 13 -20 16 -11 3 -20 13 -20 21 0
16 -18 18 -40 4z"/>
<path d="M5910 5090 c0 -5 5 -10 10 -10 6 0 10 5 10 10 0 6 -4 10 -10 10 -5 0
-10 -4 -10 -10z"/>
<path d="M5750 5070 c0 -11 5 -20 11 -20 6 0 8 -7 5 -16 -3 -9 -2 -12 5 -9 6
4 8 13 5 21 -4 10 3 14 22 14 l27 0 -29 15 c-38 20 -46 19 -46 -5z"/>
<path d="M5995 5080 c-3 -5 1 -10 10 -10 9 0 13 5 10 10 -3 6 -8 10 -10 10 -2
0 -7 -4 -10 -10z"/>
<path d="M6110 5055 c7 -9 15 -13 17 -11 7 7 -7 26 -19 26 -6 0 -6 -6 2 -15z"/>
<path d="M5646 5052 c-3 -6 -20 -13 -36 -17 -17 -4 -30 -11 -30 -17 0 -6 8 -7
18 -3 29 11 37 11 34 -3 -4 -18 19 -10 32 11 7 12 7 20 -1 28 -7 7 -13 7 -17
1z"/>
<path d="M5835 5050 c3 -5 13 -10 21 -10 8 0 14 5 14 10 0 6 -9 10 -21 10 -11
0 -17 -4 -14 -10z"/>
<path d="M5730 5009 c0 -5 5 -7 10 -4 6 3 10 8 10 11 0 2 -4 4 -10 4 -5 0 -10
-5 -10 -11z"/>
<path d="M5866 5006 c3 -8 12 -12 20 -9 17 6 9 23 -11 23 -8 0 -12 -6 -9 -14z"/>
<path d="M5468 5003 c7 -3 16 -2 19 1 4 3 -2 6 -13 5 -11 0 -14 -3 -6 -6z"/>
<path d="M5600 4994 c0 -8 5 -12 10 -9 6 3 10 10 10 16 0 5 -4 9 -10 9 -5 0
-10 -7 -10 -16z"/>
<path d="M5773 4987 c0 -14 6 -28 14 -32 11 -3 13 -1 9 10 -3 8 -1 15 4 15 6
0 10 -7 10 -15 0 -8 5 -15 11 -15 5 0 7 5 4 10 -3 6 1 10 10 10 9 0 13 5 10
10 -4 6 -10 8 -15 5 -5 -3 -11 -1 -15 5 -4 6 -11 7 -17 4 -6 -4 -14 -1 -18 6
-5 7 -7 2 -7 -13z"/>
<path d="M6100 4975 c0 -8 2 -15 4 -15 2 0 6 7 10 15 3 8 1 15 -4 15 -6 0 -10
-7 -10 -15z"/>
<path d="M5533 4965 c0 -8 6 -16 14 -19 11 -4 11 -1 3 14 -13 24 -17 25 -17 5z"/>
<path d="M5625 4970 c3 -5 8 -10 11 -10 2 0 4 5 4 10 0 6 -5 10 -11 10 -5 0
-7 -4 -4 -10z"/>
<path d="M5905 4970 c-16 -7 -17 -9 -3 -9 9 -1 20 4 23 9 7 11 7 11 -20 0z"/>
<path d="M5510 4941 c0 -5 7 -12 16 -15 14 -5 15 -4 4 9 -14 17 -20 19 -20 6z"/>
<path d="M5500 4911 c0 -5 7 -11 15 -15 8 -3 15 -1 15 3 0 5 -7 11 -15 15 -8
3 -15 1 -15 -3z"/>
<path d="M5543 4895 c-6 -14 -7 -25 -2 -25 5 0 9 4 9 9 0 5 9 13 20 16 11 4
18 11 15 16 -11 17 -30 9 -42 -16z"/>
<path d="M5764 4904 c3 -9 6 -18 6 -20 0 -2 5 -4 11 -4 8 0 9 4 0 13 -6 8 -8
17 -4 20 3 4 1 7 -6 7 -8 0 -11 -6 -7 -16z"/>
<path d="M5690 4890 c0 -5 5 -10 10 -10 6 0 10 5 10 10 0 6 -4 10 -10 10 -5 0
-10 -4 -10 -10z"/>
<path d="M5950 4780 c13 -23 20 -26 20 -6 0 8 -7 16 -15 20 -13 4 -14 2 -5
-14z"/>
<path d="M5044 4774 c-11 -5 -7 -54 5 -54 3 0 6 14 6 30 0 17 0 30 0 29 0 0
-5 -3 -11 -5z"/>
<path d="M5996 4685 c-3 -8 -1 -15 4 -15 6 0 10 7 10 15 0 8 -2 15 -4 15 -2 0
-6 -7 -10 -15z"/>
<path d="M6038 4693 c7 -3 16 -2 19 1 4 3 -2 6 -13 5 -11 0 -14 -3 -6 -6z"/>
<path d="M5965 4680 c-3 -5 -1 -10 4 -10 6 0 11 5 11 10 0 6 -2 10 -4 10 -3 0
-8 -4 -11 -10z"/>
<path d="M5970 4654 c0 -6 5 -15 12 -22 9 -9 9 -15 0 -24 -28 -28 -11 -38 18
-11 19 17 25 29 18 32 -7 2 -21 10 -30 19 -10 8 -18 11 -18 6z"/>
<path d="M5940 4500 c0 -5 4 -10 9 -10 6 0 13 5 16 10 3 6 -1 10 -9 10 -9 0
-16 -4 -16 -10z"/>
<path d="M5982 4479 c2 -6 8 -10 13 -10 5 0 11 4 13 10 2 6 -4 11 -13 11 -9 0
-15 -5 -13 -11z"/>
<path d="M5961 4454 c0 -11 3 -14 6 -6 3 7 2 16 -1 19 -3 4 -6 -2 -5 -13z"/>
<path d="M5190 4410 c0 -13 11 -13 30 0 12 8 11 10 -7 10 -13 0 -23 -4 -23
-10z"/>
<path d="M5938 4373 c7 -3 16 -2 19 1 4 3 -2 6 -13 5 -11 0 -14 -3 -6 -6z"/>
<path d="M6061 4364 c0 -11 3 -14 6 -6 3 7 2 16 -1 19 -3 4 -6 -2 -5 -13z"/>
<path d="M6001 4325 c1 -19 18 -51 18 -35 0 8 -4 22 -9 30 -5 8 -9 11 -9 5z"/>
<path d="M5986 4244 c-4 -9 -4 -19 -2 -21 8 -8 26 8 26 23 0 19 -16 18 -24 -2z"/>
<path d="M5970 4186 c0 -31 6 -34 13 -6 3 11 1 23 -4 26 -5 3 -9 -6 -9 -20z"/>
<path d="M5355 4109 c-10 -15 1 -23 20 -15 9 3 13 10 10 16 -8 13 -22 13 -30
-1z"/>
<path d="M5370 4065 c7 -9 15 -13 17 -11 7 7 -7 26 -19 26 -6 0 -6 -6 2 -15z"/>
<path d="M5365 4000 c3 -5 8 -10 11 -10 2 0 4 5 4 10 0 6 -5 10 -11 10 -5 0
-7 -4 -4 -10z"/>
<path d="M5260 3990 c0 -5 5 -10 11 -10 5 0 7 5 4 10 -3 6 -8 10 -11 10 -2 0
-4 -4 -4 -10z"/>
<path d="M5870 3960 c0 -5 5 -10 11 -10 5 0 7 5 4 10 -3 6 -8 10 -11 10 -2 0
-4 -4 -4 -10z"/>
<path d="M5892 3918 c2 -6 10 -14 16 -16 7 -2 10 2 6 12 -7 18 -28 22 -22 4z"/>
<path d="M4890 5290 c0 -5 5 -10 11 -10 5 0 7 5 4 10 -3 6 -8 10 -11 10 -2 0
-4 -4 -4 -10z"/>
<path d="M3076 4853 c-6 -14 -5 -15 5 -6 7 7 10 15 7 18 -3 3 -9 -2 -12 -12z"/>
<path d="M3045 4840 c3 -5 8 -10 11 -10 2 0 4 5 4 10 0 6 -5 10 -11 10 -5 0
-7 -4 -4 -10z"/>
<path d="M3485 4819 c-4 -6 -5 -12 -2 -15 2 -3 7 2 10 11 7 17 1 20 -8 4z"/>
<path d="M3641 4813 c12 -14 12 -15 0 -9 -8 5 -17 3 -22 -5 -4 -8 -12 -14 -16
-14 -16 0 -64 -43 -54 -49 12 -8 41 3 41 15 0 5 8 9 19 9 10 0 24 7 31 15 7 8
16 12 21 9 5 -3 9 6 9 20 0 20 -5 26 -21 26 -19 0 -20 -2 -8 -17z"/>
<path d="M3520 4776 c0 -9 5 -16 10 -16 6 0 10 4 10 9 0 6 -4 13 -10 16 -5 3
-10 -1 -10 -9z"/>
<path d="M3690 4759 c-16 -30 -8 -31 13 -3 10 13 13 24 8 24 -6 0 -15 -9 -21
-21z"/>
<path d="M3510 4722 c0 -12 19 -26 26 -19 2 2 -2 10 -11 17 -9 8 -15 8 -15 2z"/>
<path d="M3727 4723 c-10 -9 -9 -23 2 -23 5 0 11 7 15 15 5 15 -5 20 -17 8z"/>
<path d="M3755 4680 c3 -5 11 -10 16 -10 6 0 7 5 4 10 -3 6 -11 10 -16 10 -6
0 -7 -4 -4 -10z"/>
<path d="M3467 4653 c-13 -12 -7 -33 8 -33 8 0 15 9 15 20 0 20 -11 26 -23 13z"/>
<path d="M2980 4614 c0 -8 5 -12 10 -9 6 3 10 10 10 16 0 5 -4 9 -10 9 -5 0
-10 -7 -10 -16z"/>
<path d="M3163 4608 c2 -22 5 -24 20 -17 9 5 17 12 17 15 0 3 -4 3 -9 -1 -6
-3 -14 2 -19 12 -9 14 -10 13 -9 -9z"/>
<path d="M3355 4550 c-3 -5 -1 -18 4 -27 9 -16 10 -14 11 10 0 28 -5 34 -15
17z"/>
<path d="M3273 4475 c1 -25 4 -32 13 -24 7 5 17 8 24 7 7 -2 15 3 17 10 3 6 0
12 -6 12 -6 0 -11 7 -11 15 0 8 -9 15 -19 15 -15 0 -19 -7 -18 -35z"/>
<path d="M3077 4446 c-3 -8 1 -20 9 -27 13 -10 17 -10 25 2 5 8 7 19 6 24 -6
16 -34 17 -40 1z"/>
<path d="M3147 4223 c-4 -3 -7 -11 -7 -17 0 -6 5 -5 12 2 6 6 9 14 7 17 -3 3
-9 2 -12 -2z"/>
<path d="M3175 4211 c-3 -5 -1 -12 5 -16 5 -3 10 1 10 9 0 18 -6 21 -15 7z"/>
<path d="M3832 4028 c-18 -11 -31 -23 -28 -26 3 -2 12 1 21 8 8 7 21 10 28 7
8 -3 13 3 13 14 0 11 0 19 -1 18 0 0 -15 -10 -33 -21z"/>
<path d="M3880 4030 c0 -5 5 -10 11 -10 5 0 7 5 4 10 -3 6 -8 10 -11 10 -2 0
-4 -4 -4 -10z"/>
<path d="M3870 3979 c0 -5 5 -7 10 -4 6 3 10 8 10 11 0 2 -4 4 -10 4 -5 0 -10
-5 -10 -11z"/>
<path d="M3881 3955 c-14 -14 -22 -28 -18 -31 4 -4 7 -1 7 7 1 12 3 11 13 -1
17 -21 63 -19 76 2 10 16 7 18 -24 18 -26 0 -33 3 -29 15 8 20 4 18 -25 -10z"/>
<path d="M3970 3919 c0 -5 4 -8 9 -5 5 3 14 -7 19 -23 8 -22 7 -34 -5 -51 -14
-20 -14 -22 3 -18 26 5 33 77 8 95 -22 16 -34 17 -34 2z"/>
<path d="M3290 3910 c0 -5 5 -10 11 -10 5 0 7 5 4 10 -3 6 -8 10 -11 10 -2 0
-4 -4 -4 -10z"/>
<path d="M3836 3901 c-3 -5 1 -11 9 -14 9 -4 12 -1 8 9 -6 16 -10 17 -17 5z"/>
<path d="M3875 3879 c4 -6 -2 -17 -14 -25 -12 -8 -21 -22 -21 -30 0 -19 -19
-18 -42 3 -10 9 -18 11 -18 5 0 -6 5 -14 10 -17 6 -4 8 -11 5 -16 -4 -5 1 -9
9 -9 18 0 21 -16 6 -25 -19 -12 -10 -22 22 -29 24 -5 36 -2 44 9 6 8 19 15 29
15 16 0 16 2 2 23 -10 15 -12 29 -6 38 5 8 6 23 3 34 -4 17 -3 17 8 -2 13 -22
14 -22 26 -3 6 11 12 23 12 27 0 5 -4 2 -9 -6 -7 -11 -13 -11 -32 3 -27 18
-43 21 -34 5z"/>
<path d="M3960 3845 c0 -8 2 -15 4 -15 2 0 6 7 10 15 3 8 1 15 -4 15 -6 0 -10
-7 -10 -15z"/>
<path d="M4030 3819 c0 -5 5 -7 10 -4 6 3 10 8 10 11 0 2 -4 4 -10 4 -5 0 -10
-5 -10 -11z"/>
<path d="M4030 3786 c0 -9 -4 -16 -8 -16 -4 0 -15 -16 -24 -35 -15 -34 -15
-34 6 -31 15 3 20 10 18 26 -1 13 5 31 13 41 11 11 13 19 6 24 -6 3 -11 -1
-11 -9z"/>
<path d="M3955 3750 c-3 -5 -1 -10 4 -10 6 0 11 5 11 10 0 6 -2 10 -4 10 -3 0
-8 -4 -11 -10z"/>
<path d="M3416 3567 c3 -10 9 -15 12 -12 3 3 0 11 -7 18 -10 9 -11 8 -5 -6z"/>
<path d="M3685 3571 c-3 -5 -1 -12 5 -16 5 -3 10 1 10 9 0 18 -6 21 -15 7z"/>
<path d="M3666 3473 c-6 -14 -5 -15 5 -6 7 7 10 15 7 18 -3 3 -9 -2 -12 -12z"/>
<path d="M3615 3430 c3 -5 8 -10 11 -10 2 0 4 5 4 10 0 6 -5 10 -11 10 -5 0
-7 -4 -4 -10z"/>
<path d="M3560 3416 c0 -9 5 -16 10 -16 6 0 10 4 10 9 0 6 -4 13 -10 16 -5 3
-10 -1 -10 -9z"/>
<path d="M3510 3381 c0 -5 5 -13 10 -16 6 -3 10 -2 10 4 0 5 -4 13 -10 16 -5
3 -10 2 -10 -4z"/>
<path d="M4607 2990 c-3 -11 -1 -23 4 -26 5 -3 9 6 9 20 0 31 -6 34 -13 6z"/>
<path d="M4700 2992 c0 -18 19 -24 37 -13 10 6 13 11 6 11 -6 0 -18 3 -27 6
-9 3 -16 1 -16 -4z"/>
<path d="M4401 2974 c0 -11 3 -14 6 -6 3 7 2 16 -1 19 -3 4 -6 -2 -5 -13z"/>
<path d="M4565 2980 c3 -5 11 -10 16 -10 6 0 7 5 4 10 -3 6 -11 10 -16 10 -6
0 -7 -4 -4 -10z"/>
<path d="M4640 2981 c0 -6 5 -13 10 -16 6 -3 10 1 10 9 0 9 -4 16 -10 16 -5 0
-10 -4 -10 -9z"/>
<path d="M4645 2610 c-3 -5 -1 -10 4 -10 6 0 11 5 11 10 0 6 -2 10 -4 10 -3 0
-8 -4 -11 -10z"/>
<path d="M4450 2561 c0 -25 6 -27 13 -6 4 8 2 17 -3 20 -6 4 -10 -3 -10 -14z"/>
<path d="M4595 2530 c-3 -5 -1 -10 4 -10 6 0 11 5 11 10 0 6 -2 10 -4 10 -3 0
-8 -4 -11 -10z"/>
<path d="M4886 2425 c-9 -14 -13 -25 -8 -25 5 0 14 11 20 25 6 14 10 25 8 25
-2 0 -11 -11 -20 -25z"/>
<path d="M7302 1259 c2 -6 8 -10 13 -10 5 0 11 4 13 10 2 6 -4 11 -13 11 -9 0
-15 -5 -13 -11z"/>
<path d="M4405 1000 c-3 -5 -1 -10 4 -10 6 0 11 5 11 10 0 6 -2 10 -4 10 -3 0
-8 -4 -11 -10z"/>
<path d="M6215 900 c-8 -13 4 -32 16 -25 12 8 12 35 0 35 -6 0 -13 -4 -16 -10z"/>
<path d="M6130 859 c0 -5 5 -7 10 -4 6 3 10 8 10 11 0 2 -4 4 -10 4 -5 0 -10
-5 -10 -11z"/>
<path d="M6173 863 c-7 -2 -13 -11 -13 -19 0 -9 -4 -12 -10 -9 -5 3 -10 -1
-10 -9 0 -19 2 -19 34 -5 42 19 41 59 -1 42z"/>
<path d="M6010 850 c0 -5 7 -7 15 -4 8 4 15 8 15 10 0 2 -7 4 -15 4 -8 0 -15
-4 -15 -10z"/>
<path d="M6610 630 c0 -5 5 -10 11 -10 5 0 7 5 4 10 -3 6 -8 10 -11 10 -2 0
-4 -4 -4 -10z"/>
<path d="M4342 9815 c-7 -14 -12 -36 -11 -48 0 -21 1 -21 11 3 11 28 20 70 15
70 -2 0 -9 -11 -15 -25z"/>
<path d="M4463 9815 c-6 -14 -7 -23 -2 -19 13 8 31 44 22 44 -4 0 -13 -11 -20
-25z"/>
<path d="M4321 9724 c0 -11 3 -14 6 -6 3 7 2 16 -1 19 -3 4 -6 -2 -5 -13z"/>
<path d="M5595 9584 c6 -5 26 -23 45 -39 l35 -30 -25 28 c-14 16 -34 33 -45
39 -11 6 -15 6 -10 2z"/>
<path d="M3942 9515 c0 -16 2 -22 5 -12 2 9 2 23 0 30 -3 6 -5 -1 -5 -18z"/>
<path d="M5921 9444 c0 -11 3 -14 6 -6 3 7 2 16 -1 19 -3 4 -6 -2 -5 -13z"/>
<path d="M6210 9290 c-8 -5 -10 -10 -5 -10 6 0 17 5 25 10 8 5 11 10 5 10 -5
0 -17 -5 -25 -10z"/>
<path d="M2320 7876 c0 -2 8 -10 18 -17 15 -13 16 -12 3 4 -13 16 -21 21 -21
13z"/>
<path d="M2916 4160 c4 -19 13 -44 20 -55 14 -19 14 -19 14 0 -1 11 -10 36
-21 55 l-20 35 7 -35z"/>
<path d="M3133 3567 c1 -15 5 -27 10 -27 10 0 9 22 -2 39 -7 10 -9 7 -8 -12z"/>
<path d="M5110 590 c0 -5 5 -10 10 -10 6 0 10 5 10 10 0 6 -4 10 -10 10 -5 0
-10 -4 -10 -10z"/>
<path d="M4650 540 c0 -5 5 -10 11 -10 5 0 7 5 4 10 -3 6 -8 10 -11 10 -2 0
-4 -4 -4 -10z"/>
<path d="M5485 370 c3 -5 8 -10 11 -10 2 0 4 5 4 10 0 6 -5 10 -11 10 -5 0 -7
-4 -4 -10z"/>
<path d="M5598 353 c7 -3 16 -2 19 1 4 3 -2 6 -13 5 -11 0 -14 -3 -6 -6z"/>
</g>
</svg>
